<svg xmlns="http://www.w3.org/2000/svg" fill-rule="evenodd" clip-rule="evenodd" image-rendering="optimizeQuality" shape-rendering="geometricPrecision" text-rendering="geometricPrecision" viewBox="0 0 391 116"><path fill="#fdfeff" d="M-.5-.5h59v1a53.6 53.6 0 0 0-44 36c-.7 0-1 .3-1 1-8.4 32 2 55.9 31 71.5 26.4 9.3 49 3.4 67.5-17.5 18-29 14.8-55.6-9.5-79.5A54.5 54.5 0 0 0 74.5.5v-1h316v116H-.5V-.5Z"/><path fill="#5491ff" d="M58.5.5v-1h16v1c-3.2-.3-6.2 0-9 1 1 .9 1 1.5 0 2a31 31 0 0 0-2-2c-1.4-1-3-1.3-5-1Z"/><path fill="#226eff" d="M58.5.5c2-.3 3.6 0 5 1a9 9 0 0 1-1 5.5l1.5.5c1.3-.8 2.5-1.1 3.5-1-1.1-1.1-1.1-2.3 0-3.5-.3-1-1-1.5-2-1.5 2.8-1 5.8-1.3 9-1 10.4 1.2 19.8 5 28 11.5 24.3 24 27.4 50.4 9.5 79.5A57.8 57.8 0 0 1 44.5 109c-29-15.6-39.4-39.5-31-71.5 1.9 3.9 3.7 3.9 5.5 0 .6 3.9 1.4 3.9 2.5 0-.8-2-2-2.3-3.5-1l-1-2a7 7 0 0 1-2.5 2 53.6 53.6 0 0 1 44-36Z"/><path fill="#fafbff" d="M106.5 36.5h-1a296.8 296.8 0 0 0-38.5-15 341 341 0 0 0-36.5 14h-2c-.8-.3-1.2-1-1-2C44.2 11.2 65.2 6.1 90.5 18c7 4.8 12.3 11 16 18.5Z"/><path fill="#f2f6ff" d="M42.5 6.5c3.3-.2 3.6.5 1 2a18 18 0 0 0 2 3.5l-1 .5a35.6 35.6 0 0 1-4-4.5c1-.3 1.6-.8 2-1.5Z"/><path fill="#cbddff" d="M88.5 6.5c1.8.8 2.3 2.1 1.5 4-1.6 1.3-3.1 1.3-4.5 0h3v-4Z"/><path fill="#2e76ff" d="M88.5 6.5v4h-3c0-2.1 1-3.5 3-4Z"/><path fill="#d8e7ff" d="M56.5 1.5a13 13 0 0 1 5 .5c-2.4.3-3 1.3-2 3-.6 1.2-1.2 2.4-2 3.5-1-2.2-1.3-4.6-1-7Z"/><path fill="#e8f0ff" d="M47.5 4.5a8.5 8.5 0 0 1 3 5l-1 1c-1.3-1.8-2-3.8-2-6Z"/><path fill="#f5f8ff" d="M88.5 6.5c-2 .5-3 1.9-3 4-.7.1-1.4 0-2-.5a18 18 0 0 0 2-3.5c1.1-1.3 2.1-1.3 3 0Z"/><path fill="#cdf" d="M72.5 1.5c1.4 1.7 2 3.7 1.5 6-1.1-1.2-2.3-1.2-3.5 0l-1-1c1.3-1.5 2.3-3.2 3-5Z"/><path fill="#e7efff" d="M63.5 1.5a31 31 0 0 1 2 2c1-.5 1-1.1 0-2 1 0 1.7.5 2 1.5-1.1 1.2-1.1 2.4 0 3.5-1-.1-2.2.2-3.5 1L62.5 7a9 9 0 0 0 1-5.5Z"/><path fill="#e8f0ff" d="M78.5 2.5c.7-.1 1.4 0 2 .5-1.9 1.7-2.5 3.6-2 5.5-1.2-2-1.2-4 0-6Z"/><path fill="#dae7ff" d="M35.5 11.5c0-.5.4-.9 1-1 1.1 1.4 2.1 3 3 4.5-2 .3-3.8.8-5.5 1.5a4.5 4.5 0 0 1-1.5-2l4-2c-.1-.6-.5-1-1-1Z"/><path fill="#e0eaff" d="M27.5 17.5c2 .4 4 1 6 2l-3 2c1.2 1.9 1 2.2-1 1a16 16 0 0 1-2-5Z"/><path fill="#cee0ff" d="M99.5 17.5c1.3 1 1.8 2.4 1.5 4a4.4 4.4 0 0 1-1.5-4Z"/><path fill="#83a7ff" d="M113.5 67.5c-.7 0-1-.3-1-1 .3-3.2 0-6.2-1-9v-2c1.4-5.2.7-10.2-2-15l-3-4c-3.7-7.5-9-13.7-16-18.5-25.3-12-46.3-6.8-63 15.5v-2c6-9.9 14.8-16.7 26-20.5 32.7-5 52.8 8.4 60.5 40.5.6 5.4.4 10.7-.5 16Z"/><path fill="#3777ff" d="M77.5 18.5a14 14 0 0 1 10 4.5c-4.8 1.4-8.1-.1-10-4.5Z"/><path fill="#2d75ff" d="M59.5 16.5a3 3 0 0 1 3 1 9.4 9.4 0 0 1-10 2.5c2.2-1.6 4.5-2.8 7-3.5Z"/><path fill="#d7e4ff" d="M105.5 20.5c3.2-.3 4.3 1 3.5 4-.4-1.2-1-2.2-2-3-.5 1.2-1.3 2-2.5 2.5 1 .7 1.1 1.6.5 2.5-1-1-1.8-2.2-2.5-3.5a4.2 4.2 0 0 0 3-2.5Z"/><path fill="#468aff" d="M105.5 36.5a7 7 0 0 0-4 1 132 132 0 0 0-13.5-6c-.4.2-.6.6-.5 1h-1c-.7-1.7-2-2.3-4-2a10 10 0 0 0-8-3 21.3 21.3 0 0 0-7.5-4c-5.5 2-10.6 4.3-15.5 7-5 .3-9.3 2-13 5-.4.7-1 1.2-2 1.5 2.6.5 5.3.7 8 .5h32c7.2.8 14.5 1.3 22 1.5-3 .2-5.8.7-8.5 1.5a325.5 325.5 0 0 0-49.5 0 28.4 28.4 0 0 0-11-2.5c2.1-.3 2.5-1.2 1-2.5a341 341 0 0 1 36.5-14c13.3 4.1 26.1 9.1 38.5 15Z"/><path fill="#dfeaff" d="M74.5 27.5c-2.6-.4-5-1-7.5-2-5.2 1.8-10.3 3.4-15.5 5 4.9-2.7 10-5 15.5-7 2.9.9 5.4 2.2 7.5 4Z"/><path fill="#196bff" d="M236.5 24.5c1.6-.2 3.1.1 4.5 1 3.5 8.1 6.4 16.5 8.5 25-4 1-6.3-.6-7-4.5-2.6-.5-5.3-.7-8-.5-.4 4.5-2.7 5.8-7 4 3.2-8.3 6.2-16.6 9-25Z"/><path fill="#216eff" d="M282.5 24.5h5v4h-6a7 7 0 0 1 1-4Z"/><path fill="#176aff" d="M303.5 24.5h16v5h-10v5h9v5h-9c.2 3.3 0 6.7-.5 10-1.7 1.3-3.3 1.3-5 0a313 313 0 0 1-.5-25Z"/><path fill="#0f69ff" d="M380.5 24.5h5v26c-3-.6-6-.6-9 0a9 9 0 0 1-5.5-3c-.7-4.7-.7-9.3 0-14 2.5-3 5.5-3.7 9-2 .5-2.3.7-4.6.5-7Z"/><path fill="#246fff" d="M274.5 25.5c1.7 1.1 2.4 2.8 2 5h3v5h-3v10h3v5a8 8 0 0 1-8.5-5c-.2-4.3-1-8.5-2.5-12.5.9-3.6 2.9-6.1 6-7.5Z"/><path fill="#dde9ff" d="M110.5 27.5c1.5.3 2.2 1.3 2 3 1-.1 2 0 3 .5-1.6.7-3 1.5-4.5 2.5l-1-4c-.7 1-1.6 1.1-2.5.5l3-2.5Z"/><path fill="#1e6cff" d="M152.5 28.5h6c-.2 5.3 0 10.7.5 16 2.1 4.4 5.1 5.1 9 2 1.2-6 1.7-12 1.5-18h5c.2 6.3 0 12.7-.5 19a10 10 0 0 1-10.5 6c-4 0-7.2-1.6-9.5-5a86.6 86.6 0 0 1-1.5-20Z"/><path fill="#186bff" d="M193.5 27.5c4.3 0 8 1.3 11 4a3.5 3.5 0 0 1-3 3c-2.6-.8-5.3-1.1-8-1-.2 1.3.2 2.5 1 3.5 3.7.8 7 2.3 10 4.5 2 9.6-2 13.4-12 11.5-6.3-1.2-7.1-3.7-2.5-7.5 3.4 3.2 7 3.5 10.5 1a17.6 17.6 0 0 0-9-4.5c-3.6-2.2-4.8-5.4-3.5-9.5 1.4-2.2 3.2-4 5.5-5Z"/><path fill="#dfebff" d="M74.5 27.5a10 10 0 0 1 8 3 21 21 0 0 1-8-3Z"/><path fill="#e5eeff" d="M82.5 30.5c2-.3 3.3.3 4 2-1.5-.5-2.8-1.2-4-2Z"/><path fill="#0667ff" d="M328.5 30.5h4v5c-2.3-.4-4 .2-5 2-1 3.8-1.3 7.8-1 12h-4v-18c2.2.3 4.2 0 6-1Z"/><path fill="#196dff" d="M337.5 30.5c4-.6 7.5.4 10.5 3a53.6 53.6 0 0 1 1.5 17 24 24 0 0 0-9.5 0c-5.2-.8-7.2-3.8-6-9a9.9 9.9 0 0 1 9.5-3c-.4-4.5-2.1-5-5-1.5-1.3.5-2.6.7-4 .5a7 7 0 0 1 3-7Z"/><path fill="#0a68ff" d="M256.5 37.5c-1 3.8-1.3 7.8-1 12h-4v-18h4a8.7 8.7 0 0 1 9.5 1c1.4 5.9 2 11.9 1.5 18h-5c.2-4.3 0-8.7-.5-13-1.5-2.5-3-2.5-4.5 0Z"/><path fill="#2771ff" d="M281.5 30.5h6v20h-6v-20Z"/><path fill="#3a82ff" d="M328.5 30.5a9.6 9.6 0 0 1-6 1v18h4c-.3-4.2 0-8.2 1-12v13h-6v-20h7Z"/><path fill="#1f6dff" d="M351.5 30.5h6c-.2 4.7 0 9.3.5 14 1 .8 2.2 1.2 3.5 1 .8-5 1.2-10 1-15h5c.2 5 0 10-.5 15-3.9 5.8-8.6 6.4-14 2a61.5 61.5 0 0 1-1.5-17Z"/><path fill="#98b7ff" d="M27.5 31.5v2c-.2 1 .2 1.7 1 2-.7 1.3-1.5 1.3-2.5 0-.5.6-.6 1.3-.5 2a6 6 0 0 1-2 5c-1.5 2.3-2.2 5-2 8-1 3.8-1.3 7.8-1 12 0 .7-.3 1-1 1-.7-8.6.5-17 3.5-25 1-2.7 2.5-5 4.5-7Z"/><path fill="#e7f0ff" d="M51.5 30.5c-4 2.2-8.4 3.9-13 5 3.7-3 8-4.7 13-5Z"/><path fill="#cbddff" d="M101.5 37.5c-5-.9-9.7-2.6-14-5 0-.4.1-.8.5-1a132 132 0 0 1 13.5 6Z"/><path fill="#eaf1ff" d="M238.5 34.5a7.1 7.1 0 0 1 2 6c-1.5.3-2.8 0-4-1l2-5Z"/><path fill="#2470ff" d="M290.5 34.5h10v6h-10v-6Z"/><path fill="#f5f8ff" d="M376.5 35.5c1.3-.2 2.5.2 3.5 1 .7 2.3.7 4.7 0 7-1 2-2.3 2.4-4 1-.7-3-.6-6 .5-9Z"/><path fill="#f9fbff" d="m106.5 36.5 3 4a178 178 0 0 1 2 13c-3.8.6-7.2-.1-10-2a6.5 6.5 0 0 0 3-3 6 6 0 0 1-2-5 705 705 0 0 1 4-7Z"/><path fill="#dce9ff" d="M116.5 34.5c1.3 1 1.8 2.4 1.5 4-1.7-.5-3.6-.6-5.5-.5 2-.5 3.4-1.7 4-3.5Z"/><path fill="#7ba4ff" d="M13.5 37.5c0-.7.3-1 1-1a7 7 0 0 0 2.5-2l1 2c1.5-1.3 2.7-1 3.5 1-1 3.9-2 3.9-2.5 0-1.8 3.9-3.6 3.9-5.5 0Z"/><path fill="#f2f5ff" d="M25.5 37.5c2.2 1 4 2.7 5.5 5 .5 2 0 4-1.5 5.5 0 .8.4 1.3 1 1.5a7 7 0 0 1 1 4c-5.2.4-5.2 1.4 0 3-.1.6-.5 1-1 1a7.7 7.7 0 0 0-7 1 9.2 9.2 0 0 1-2-8c1.3-2.4 2-5 2-8a6 6 0 0 0 2-5Z"/><path fill="#c6dcff" d="M94.5 41.5c1.1.8 2.4 1.3 4 1.5-2.1.3-2.5 1.2-1 2.5-2 .6-4 1-6 1 0-.7-.3-1-1-1 4.3-2.3 4-3.3-1-3-12.2.3-24.2.3-36 0-.8.5-1.1 1.1-1 2l-2 2v3c-1.3-.2-2.5.2-3.5 1-.5-.6-.6-1.3-.5-2 4-1.6 3.9-3-.5-4-1.4.2-2.2.9-2.5 2h-6a3 3 0 0 1-1 3l-1-1c.7-1.2 1-2.6 1-4-1.8.3-3.2-.4-4-2 20.7-1 41.3-1.3 62-1Z"/><path fill="#e7efff" d="M116.5 40.5a3 3 0 0 1 3 1c-1.8.6-3.3 1.6-4.5 3-.5-1.7 0-3 1.5-4Z"/><path fill="#fbfdff" d="M339.5 42.5h4v3h-4v-3Z"/><path fill="#e4eeff" d="M90.5 45.5c-5 .3-10 .3-15 0-2.1-1-4.1-.7-6 1h-6c.2 1.7-.5 2.7-2 3 1.2-1.5 1.2-3 0-4.5-3 .8-6 .6-9-.5-.1-.9.2-1.5 1-2 11.8.3 23.8.3 36 0 5-.3 5.3.7 1 3Z"/><path fill="#3584ff" d="M255.5 31.5h-4v18h4c-.3-4.2 0-8.2 1-12v13h-6v-20c2-.3 3.6 0 5 1Z"/><path fill="#dbe8ff" d="M17.5 48.5c-.6-1.8-2-3-4-3.5 1.4-.6 2.7-.4 4 .5 1.3 1.1 1.3 2.1 0 3Z"/><path fill="#4a8fff" d="M46.5 48.5h-1c1.2-1.7.5-2.4-2-2 .3-1.1 1.1-1.8 2.5-2 4.4 1 4.5 2.4.5 4Z"/><path fill="#82adff" d="M52.5 44.5c3 1.1 6 1.3 9 .5 1.2 1.5 1.2 3 0 4.5h-1c0-1 .2-1.8 1-2.5-1.2-.7-2.2-.6-3 .5.1.9-.2 1.5-1 2a3 3 0 0 1-1-3h-6l2-2Z"/><path fill="#6b9eff" d="M75.5 45.5c.4.8.8 1.6 1 2.5a10 10 0 0 0-2 3.5h-2c.2-1-.2-1.7-1-2 0-1.2.7-2 2-2.5a3.9 3.9 0 0 0-4 .5v-1c1.9-1.7 3.9-2 6-1Z"/><path fill="#1f72ff" d="M23.5 42.5c0 3-.7 5.6-2 8-.2-3 .5-5.7 2-8Z"/><path fill="#1e6eff" d="M74.5 27.5a21 21 0 0 0 8 3c1.2.8 2.5 1.5 4 2h1c4.3 2.4 9 4.1 14 5a7 7 0 0 1 4-1h1a705 705 0 0 0-4 7c-.7.4-1.2 1-1.5 2-1-3.1-3.2-4.5-6.5-4-20.7-.3-41.3 0-62 1 .8 1.6 2.2 2.3 4 2 0 1.4-.3 2.8-1 4l1 1a3 3 0 0 0 1-3h6a3 3 0 0 0 1 3c.6-.1 1-.5 1-1h1c-.1.7 0 1.4.5 2 1-.8 2.2-1.2 3.5-1v-3h6a3 3 0 0 0 1 3c.8-.5 1.1-1.1 1-2v23a18 18 0 0 1-2.5-10 10.7 10.7 0 0 0-4.5-3c1-.9 1-1.6 0-2-1.3 9-1.3 18 0 27a3 3 0 0 1-3 1v-3c-.3-7.7 0-15.4 1-23a7.2 7.2 0 0 1-2-6c-2 .7-4 .7-6 0a37.1 37.1 0 0 0 0 17c1.3-.2 2.3.1 3 1h-4v14c-3.8-.6-7.2.1-10 2l-2-1v-2l-2-1c0-1.1.4-2.1 1-3 0-1.6.4-3 1-4.5l3-2a6 6 0 0 1-3-6.5c1.7.2 2.7-.5 3-2v-2c.1-.9-.2-1.5-1-2a8.5 8.5 0 0 1-8 0c-.8.5-1.1 1.1-1 2 0 .7-.3 1-1 1-.3-4.2 0-8.2 1-12-.5 3.2.1 5.9 2 8 2.6.3 4.9 0 7-1 .5 0 .9-.4 1-1-5.2-1.6-5.2-2.6 0-3a7 7 0 0 0-1-4c-.6-.2-1-.7-1-1.5 1.5-1.6 2-3.4 1.5-5.5-1.4-2.3-3.3-4-5.5-5-.1-.7 0-1.4.5-2 1 1.3 1.8 1.3 2.5 0h2c1.5 1.3 1.1 2.2-1 2.5 3.9.1 7.5 1 11 2.5 16.7-1.3 33.2-1.3 49.5 0 2.7-.8 5.6-1.3 8.5-1.5-7.5-.2-14.8-.7-22-1.5 4 .2 8 0 12-.5-7.3-3-14.6-5.8-22-8.5a216 216 0 0 0-22 9c-2.7.2-5.4 0-8-.5 1-.3 1.6-.8 2-1.5 4.6-1.1 9-2.8 13-5 5.2-1.6 10.3-3.2 15.5-5 2.4 1 5 1.6 7.5 2Z"/><path fill="#f4f8ff" d="M76.5 37.5h-32a216 216 0 0 1 22-9c7.4 2.7 14.7 5.6 22 8.5-4 .5-8 .7-12 .5Z"/><path fill="#72a6ff" d="M65.5 32.5c.8.7 1.4 1.5 2 2.5-1.6.2-2.2-.6-2-2.5Z"/><path fill="#ebf2ff" d="M43.5 46.5c2.5-.4 3.2.3 2 2 0 .5-.4.9-1 1a3 3 0 0 1-1-3Z"/><path fill="#0b69ff" d="M69.5 46.5v1c0 1.3.7 2 2 2 .8.3 1.2 1 1 2a46 46 0 0 0 0 17h-4c-1.3-1.3-2.7-1.3-4 0-1.1-.3-1.8-1.1-2-2.5l-2-16.5h1c1.5-.3 2.2-1.3 2-3h6Z"/><path fill="#3d7cff" d="M90.5 45.5c.7 0 1 .3 1 1h-8c-.1 1 0 2 .5 3l1-1c.4 1.3 1.3 2 2.5 2v1c-2.2.8-3.2 2.5-3 5 .9 7.1.9 14.3 0 21.5.5.7 1.2 1.2 2 1.5.6-6.6.6-13.3 0-20 .1-3 .8-5.6 2-8h1c.3 1.5 1.3 2.2 3 2v5l-2-3-1 .5c.3 2 .3 4.1 0 6.5h3v5c-3.1 0-3.4.4-1 1.5a3.3 3.3 0 0 0-2 3.5h3c.3 2.1 0 4.1-1 6-1.4-1.5-2-1.2-2 1a4 4 0 0 0 2 3.5c-3.3.7-6.7.7-10 0l1.5-1.5c.7-8.3.7-16.7 0-25-1.7-.3-3-1.6-4-4a92.4 92.4 0 0 0-2.5 17c-.7 0-1-.3-1-1 .3-5.9 0-11.5-1-17a10 10 0 0 1 2-3.5c-.2-.9-.6-1.7-1-2.5 5 .3 10 .3 15 0Z"/><path fill="#dbe7ff" d="M89.5 46.5c0 1.7-.7 3-2 4-1.2 0-2-.7-2.5-2l-1 1a5 5 0 0 1-.5-3h6Z"/><path fill="#116bff" d="M109.5 40.5c2.7 4.8 3.4 9.8 2 15a61 61 0 0 1-11-.5c-.6-1.2-1.2-2.4-2-3.5l-1 .5c1.7 8.5 2.4 17.3 2 26.5a5.8 5.8 0 0 0-2 5h-4c0-2 .6-4 2-5.5-1-4-1.3-8.2-1-12.5a61 61 0 0 0-.5-11c-.6-2.4-2-3.4-4.5-3h-2v-1c1.3-1 2-2.3 2-4h2c2 0 4-.4 6-1l-2 3c1.1 1.1 2 .8 2.5-1 .7 4 1.3 4 2 0 1.2 1 1.7 2.4 1.5 4 2.8 1.9 6.2 2.6 10 2a178 178 0 0 0-2-13Z"/><path fill="#e4edff" d="M115.5 46.5c1.8-.3 3.5 0 5 1l-2 1c.5.7 1.2 1.2 2 1.5-1.6.3-3.1.8-4.5 1.5-.5-1.2 0-2 1.5-2.5-1.3-.4-2-1.3-2-2.5Z"/><path fill="#e5eeff" d="M71.5 49.5c-1.3 0-2-.7-2-2 1.2-1 2.6-1 4-.5-1.3.4-2 1.3-2 2.5Z"/><path fill="#166bff" d="M177.5 47.5h6v6h-6v-6Z"/><path fill="#1f6eff" d="M208.5 47.5h6v6h-6v-6Z"/><path fill="#e5eeff" d="M30.5 49.5c.2-2.4 1.5-3.4 4-3 0 3.1-.4 3.4-1.5 1-.4 1.3-1.3 2-2.5 2Z"/><path fill="#dfebff" d="M17.5 48.5c-1.3 2-3 2.4-5 1 1.5-1 3.2-1.3 5-1Z"/><path fill="#6c9dff" d="M94.5 41.5c3.3-.5 5.5.9 6.5 4 .3-1 .8-1.6 1.5-2a6 6 0 0 0 2 5 6.5 6.5 0 0 1-3 3c.2-1.6-.3-3-1.5-4-.7 4-1.3 4-2 0-.5 1.8-1.4 2.1-2.5 1l2-3c-1.5-1.3-1.1-2.2 1-2.5a8.8 8.8 0 0 1-4-1.5Z"/><path fill="#f6f9ff" d="M58.5 47.5c.8-1 1.8-1.2 3-.5-.8.7-1 1.5-1 2.5l2 16.5c.2 1.4.9 2.2 2 2.5a7.1 7.1 0 0 1-6 2v-23Z"/><path fill="#e9f0ff" d="M72.5 51.5h2c1 5.5 1.3 11.1 1 17-1.3.3-2.1 1-2.5 2-1.7-.4-3.2-1-4.5-2h4a46 46 0 0 1 0-17Z"/><path fill="#f0f5ff" d="M111.5 55.5v2c-2.8-.8-5.4-.8-8 0-.7-1.3-1.5-1.3-2.5 0a25 25 0 0 0 .5 11.5c-.5 3.3-1.2 6.5-2 9.5.4-9.2-.3-18-2-26.5l1-.5c.8 1.1 1.4 2.3 2 3.5 3.7.5 7.3.7 11 .5Z"/><path fill="#609eff" d="M64.5 52.5c4.3.1 4.7.5 1 1-.6 3.3.4 5 3 5a4.9 4.9 0 0 1-4 1v-7Z"/><path fill="#ecf2ff" d="m92.5 58.5 2 7c-.3 4.3 0 8.4 1 12.5a8 8 0 0 0-2 5.5h4c2.2-.3 4.2 0 6 1l-7 7.5a34.8 34.8 0 0 1-10 2l5 1-8 1c1.9.2 3.5.7 5 1.5-2.6 0-4.6 1-6 3-4 .5-8 1.2-12 2h-1c3.8-2.4 6.4-5.8 8-10l-2 1a166 166 0 0 1 2-12 8.8 8.8 0 0 0 .5-7c-1-.8-2.2-1.2-3.5-1 2-.7 4-1 6-1-1.6-.8-3.2-1.3-5-1.5.6-.4.9-.9 1-1.5.3-5.8 1.1-11.4 2.5-17 1 2.4 2.3 3.7 4 4 .7 8.3.7 16.7 0 25L81.5 83c3.3.7 6.7.7 10 0a4 4 0 0 1-2-3.5c0-2.2.6-2.5 2-1 1-1.9 1.3-3.9 1-6h-3c-.1-1.6.5-2.8 2-3.5-2.4-1-2.1-1.6 1-1.5v-5h-3c.3-2.4.3-4.5 0-6.5l1-.5 2 3Z"/><path fill="#7fb1ff" d="M89.5 51.5c2.4-.4 4 .6 4.5 3 .5 3.7.7 7.3.5 11l-2-7v-5c-1.7.2-2.7-.5-3-2Z"/><path fill="#ecf2ff" d="M14.5 55.5c2.6 1 2.6 2 0 3-2.5-1-2.5-2 0-3Z"/><path fill="#1b6fff" d="M79.5 56.5c1.8.1 2.2.8 1 2-.8-.5-1.1-1.1-1-2Z"/><path fill="#e8f0ff" d="M118.5 55.5c2.6 1 2.6 2 0 3-2.5-1-2.5-2 0-3Z"/><path fill="#80b1ff" d="M30.5 57.5c-2.1 1-4.4 1.3-7 1a7.7 7.7 0 0 1 7-1Z"/><path fill="#7eb0ff" d="M111.5 57.5a8.5 8.5 0 0 1-8 0c2.6-.8 5.2-.8 8 0Z"/><path fill="#e8f0ff" d="M31.5 61.5c-3.2.5-6.5.5-10 0-.1-.9.2-1.5 1-2a8.5 8.5 0 0 0 8 0c.8.5 1.1 1.1 1 2Z"/><path fill="#d5e5ff" d="M32.5 51.5c1.3 4.5 2 9.3 2 14.5L34 80.5c-1.5-9.5-2-19.2-1.5-29Z"/><path fill="#f7faff" d="M87.5 51.5h1c-1.2 2.4-1.9 5-2 8 .6 6.7.6 13.4 0 20-.8-.3-1.5-.8-2-1.5.9-7.2.9-14.4 0-21.5-.2-2.5.8-4.2 3-5Z"/><path fill="#2e78ff" d="M103.5 57.5a8.5 8.5 0 0 0 8 0c1 2.8 1.3 5.8 1 9h-1c-.5-2.9-2-3.6-4.5-2a5 5 0 0 1-.5-3c1.6-.2 3.1.1 4.5 1 .7-1.1.6-2.1-.5-3a7.8 7.8 0 0 1-7.5 0c-.6 4.1.3 8 2.5 11.5-1 .6-1.8.5-2.5-.5-.2 1.8.3 3.5 1.5 5-2.2 2.3-2.4 4.6-.5 7 1.4-2.3 2.2-2.3 2.5 0l-3 2a9.6 9.6 0 0 0-6-1c-.1-2 .5-3.7 2-5 .8-3 1.5-6.2 2-9.5a25 25 0 0 1-.5-11.5c1-1.3 1.8-1.3 2.5 0Z"/><path fill="#6291ff" d="M21.5 61.5c3.5.5 6.8.5 10 0v2c-2.5 1.1-4.6 1.1-6.5 0-2 1.1-2.7 2.8-2 5 .3-.8.8-1.5 1.5-2 1.2 2 1.2 4 0 6 .6 2.3 1.6 4.3 3 6-.6.9-1 1.9-1 3-4-5.3-6.3-11.3-7-18 .7 0 1-.3 1-1 .7 0 1-.3 1-1Z"/><path fill="#f2f6ff" d="M31.5 63.5c-.3 1.5-1.3 2.2-3 2a6 6 0 0 0 3 6.5l-3 2c-.6 1.4-1 3-1 4.5a16.8 16.8 0 0 1-3-6c1.2-2 1.2-4 0-6-.7.5-1.2 1.2-1.5 2-.7-2.2 0-3.9 2-5 1.9 1.1 4 1.1 6.5 0Z"/><path fill="#e3ebff" d="m111.5 66.5-2 4v1c-.8 1.4-1.4 2.9-2 4.5l.5 2.5a12 12 0 0 1 2.5-4c-.3 3.3-1.6 6-4 8-.3-2.3-1.1-2.3-2.5 0-1.9-2.4-1.7-4.7.5-7a6.5 6.5 0 0 1-1.5-5c.7 1 1.6 1.1 2.5.5-2.2-3.5-3-7.4-2.5-11.5 2.5 1.3 5 1.3 7.5 0 1 .9 1.2 1.9.5 3a6.5 6.5 0 0 0-4.5-1c-.1 1 0 2 .5 3 2.5-1.6 4-.9 4.5 2Z"/><path fill="#f9fbff" d="M13.5 65.5c.9-1.3 1.9-1.3 3 0-1 1-2 1-3 0Z"/><path fill="#689cff" d="M44.5 69.5c-.7-.9-1.7-1.2-3-1v-6h3c.3-1.6 0-3-1-4v-2a5 5 0 0 0 2.5-4c.2 5.8-.3 11.5-1.5 17Z"/><path fill="#2474ff" d="M79.5 62.5c1.1.3 1.8 1.1 2 2.5l-.5 2.5c-.6-1.7-1.1-3.3-1.5-5Z"/><path fill="#e7efff" d="M117.5 63.5c2.1.9 2.3 1.9.5 3-1.7-.7-1.8-1.7-.5-3Z"/><path fill="#2d75ff" d="M107.5 65.5c1.8.1 2.2.8 1 2-.8-.5-1.1-1.1-1-2Z"/><path fill="#82a5ff" d="M68.5 68.5c1.3 1 2.8 1.6 4.5 2 .4-1 1.2-1.7 2.5-2 0 .7.3 1 1 1-.1.6-.4 1.1-1 1.5 1.8.2 3.4.7 5 1.5-2 0-4 .3-6 1a22.4 22.4 0 0 0-11-2 27 27 0 0 0-9 2v8l-2-9 6-2c2.4.2 4.4-.4 6-2 1.3-1.3 2.7-1.3 4 0Z"/><path fill="#226eff" d="M255.5 68.5h3c-4.3 9.8-4 19.5 1 29-3.3 1.5-5.4.5-6.5-3-4-9.2-3.1-17.9 2.5-26Z"/><path fill="#2770ff" d="M341.5 69.5c2-1.4 3.8-1 5.5 1a26.2 26.2 0 0 1 0 26 6.5 6.5 0 0 1-4.5 1 65 65 0 0 0 1.5-23c-.8-1.8-1.6-3.5-2.5-5Z"/><path fill="#277cff" d="M109.5 70.5c-1.8-.1-2.2-.8-1-2 .8.5 1.1 1.1 1 2Z"/><path fill="#76a0ff" d="M111.5 66.5h1c0 .7.3 1 1 1a19 19 0 0 1-3 7c.2-1.3-.1-2.3-1-3v-1l2-4Z"/><path fill="#1c6cff" d="M265.5 70.5c3.4-.2 6.7 0 10 .5 1.8.5 3 1.7 3.5 3.5.7 5.3.7 10.7 0 16-2.9 4.7-7 6.2-12.5 4.5a7 7 0 0 1-3.5-2.5 41.2 41.2 0 0 1-1-17c1-1.8 2.2-3.5 3.5-5Z"/><path fill="#176bff" d="M286.5 70.5c8.4-2.4 13 .6 14 9-3.7.9-5.7-.4-6-4-5.8-.9-8.2 1.6-7 7.5-1 5.3 1 7.6 6 7 .8-1 1.2-2.2 1-3.5h6c-.9 7.8-5.2 10.6-13 8.5a7 7 0 0 1-3.5-2.5 44 44 0 0 1-1-18c1.4-1.2 2.5-2.5 3.5-4Z"/><path fill="#246eff" d="M303.5 69.5h16v6h-11v5h9v5h-9v5h11v5h-16v-26Z"/><path fill="#1b6cff" d="M328.5 69.5c8.6.4 12.2 4.9 11 13.5 1 7.4-2.1 11.6-9.5 12.5-7.3-1.2-10.1-5.5-8.5-13-1.4-6.5.9-10.9 7-13Z"/><path fill="#3c75ff" d="M63.5 71.5c3.9-.3 7.5.4 11 2 1.3-.2 2.5.2 3.5 1 .8 2.5.6 4.9-.5 7-7-1.3-14-1.3-21 0h-2v-8c3.3.3 6.3-.4 9-2Z"/><path fill="#1f6eff" d="M212.5 71.5h3v5h3v4h-3v10h3v5a8 8 0 0 1-8.5-5c0-4.4-.8-8.6-2.5-12.5 1.2-2.6 2.9-4.8 5-6.5Z"/><path fill="#e0ebff" d="M16.5 71.5c2.1.9 2.3 1.9.5 3-1.7-.7-1.8-1.7-.5-3Z"/><path fill="#72a9ff" d="M38.5 55.5c1.2 7.5 1.3 15.2.5 23L37.5 77c1-7 1.3-14.2 1-21.5Z"/><path fill="#c7daff" d="M63.5 71.5a14.5 14.5 0 0 1-9 2 27 27 0 0 1 9-2Z"/><path fill="#fefffe" d="M115.5 72.5c1.8.1 2.2.8 1 2-.8-.5-1.1-1.1-1-2Z"/><path fill="#0d6bff" d="M109.5 71.5c.9.7 1.2 1.7 1 3a12 12 0 0 0-2.5 4l-.5-2.5c.6-1.6 1.2-3.1 2-4.5Z"/><path fill="#1d6cff" d="M166.5 89.5h4v3c-.9 3-2.9 4.9-6 5.5-4.8 1.4-8.3-.1-10.5-4.5-.7-5.3-.7-10.7 0-16 2.5-4.6 6.4-6 11.5-4.5 4.2 1.8 6.2 5 6 9.5-3.4.6-5.6-.8-6.5-4-2.3-1.4-4.3-1.1-6 1-.7 4-.7 8 0 12 3.3 2.7 5.8 2 7.5-2Z"/><path fill="#bcd2ff" d="M65.5 73.5c1.8.1 2.2.8 1 2-.8-.5-1.1-1.1-1-2Z"/><path fill="#f4f8ff" d="M267.5 75.5c2.6-.4 4.7.3 6.5 2 1 4.4.5 8.6-1.5 12.5-1.6.7-3.1.6-4.5-.5-.5-4.7-.7-9.3-.5-14Z"/><path fill="#f8faff" d="M327.5 75.5h6c.2 4.7 0 9.3-.5 14-3.4 1.8-5.4.8-6-3-.7-3.7-.5-7.4.5-11Z"/><path fill="#106aff" d="M175.5 76.5c9-1.7 13.3 2 13 11-3.7-.3-7.4 0-11 1 .5 1.4 1.5 2 3 2 2-1.4 4.4-2.1 7-2 .5 3.3-.8 5.5-4 6.5-7.5 1.3-11.2-1.8-11-9.5-.4-3.5.6-6.5 3-9Z"/><path fill="#1169ff" d="M190.5 76.5c4-.2 8 0 12 .5.8.3 1.5.8 2 1.5 1 5.6 1.3 11.3 1 17h-5c.3-4.7 0-9.4-1-14-1.4-1.2-2.6-.8-3.5 1-.5 4.3-.7 8.7-.5 13h-5v-19Z"/><path fill="#0f6aff" d="M223.5 76.5c9-1.7 13.3 2 13 11-3.7-.3-7.4 0-11 1 .5 1.4 1.5 2 3 2 2-1.4 4.4-2.1 7-2 .5 3.3-.8 5.5-4 6.5-7.5 1.3-11.2-1.8-11-9.5-.4-3.5.6-6.5 3-9Z"/><path fill="#196aff" d="M238.5 75.5c3.6.6 7.3 1 11 1v4c-1.8-.1-3.4.2-5 1-1 4.6-1.3 9.3-1 14h-5v-20Z"/><path fill="#ebf2ff" d="M28.5 82.5c-.4-2.2.3-3.8 2-5 1.6 2.7 1 4.3-2 5Z"/><path fill="#fcfdff" d="M19.5 79.5c2.5.4 2.6 1.4.5 3a5 5 0 0 1-.5-3Z"/><path fill="#e0ebff" d="M112.5 79.5c2.6 1 2.6 2 0 3-1-1-1-2 0-3Z"/><path fill="#eff4ff" d="M178.5 80.5c1.8-.3 3.2.4 4 2-1.7 1.3-3.3 1.3-5 0l1-2Z"/><path fill="#f1f5ff" d="M226.5 80.5c1.8-.3 3.2.4 4 2-1.7 1.3-3.3 1.3-5 0l1-2Z"/><path fill="#f3f7ff" d="M54.5 81.5h2c.2 2.7.2 5.7 0 9a14.5 14.5 0 0 1-2-9Z"/><path fill="#dfeaff" d="M62.5 97.5c.3-5 0-10-1-15-1 3.6-1.3 7.3-1 11-1-.2-1.7.2-2 1-.8-.3-1.2-1-1-2 1-3.5 1.3-7.1 1-11h6c.6 5.8 0 11.1-2 16Z"/><path fill="#adcaff" d="m26.5 81.5 2 1v2c-1.4-.5-2-1.5-2-3Z"/><path fill="#eef4ff" d="M48.5 80.5a7.5 7.5 0 0 1-4.5-7c-.9-1.2-1.7-1.2-2.5 0-.6 2.5 0 4.8 2 7a5 5 0 0 1-1 2.5c2 .5 4 .7 6 .5a3 3 0 0 0 3-1c-1.3-9-1.3-18 0-27 1 .4 1 1.1 0 2 1.8.6 3.3 1.6 4.5 3 0 3.8.7 7.1 2.5 10l-6 2a85 85 0 0 0 .5 13c.8 4.3 2.6 8 5.5 11 .4 1.7 1.4 2.7 3 3 2 3 4.7 4 8 3v2h-5c-.1-.6-.4-1.1-1-1.5-6.7-1-13-3-19-6l3-1c-8-.7-8-1.3 0-2a46 46 0 0 0-10-2 63.7 63.7 0 0 0-7-6.5c2.8-1.9 6.2-2.6 10-2v-14h4a70.2 70.2 0 0 0 1.5-17 5 5 0 0 1-2.5 4c-2.7.7-2.7 1.3 0 2 1 1 1.3 2.4 1 4h-3v6a37.1 37.1 0 0 1 0-17c2 .7 4 .7 6 0-.3 2.3.4 4.3 2 6-1 7.6-1.3 15.3-1 23Z"/><path fill="#4c86ff" d="M48.5 80.5v3c-2 .2-4 0-6-.5a5 5 0 0 0 1-2.5c-2-2.2-2.6-4.5-2-7 .8-1.2 1.6-1.2 2.5 0a7.5 7.5 0 0 0 4.5 7Z"/><path fill="#357fff" d="M51.5 62.5h4v5c-1.5.3-2.8 0-4-1 .5-.7 1.2-1.2 2-1.5-1.3-.4-2-1.3-2-2.5Z"/><path fill="#1e6fff" d="M43.5 56.5v2c-2.7-.7-2.7-1.3 0-2Z"/><path fill="#1872ff" d="M41.5 53.5c1.8.1 2.2.8 1 2-.8-.5-1.1-1.1-1-2Z"/><path fill="#0a6aff" d="M62.5 97.5c-2.3-.8-3-2.2-2-4-.3-3.7 0-7.4 1-11 1 5 1.3 10 1 15Z"/><path fill="#518dff" d="M77.5 92.5a91.2 91.2 0 0 0 2.5-16c.7 3.7.7 7.3 0 11-.4 2-1.2 3.7-2.5 5Z"/><path fill="#5287ff" d="m52.5 72.5 2 9c-.3 3.3.4 6.3 2 9 .8.3 1.2 1 1 2-.2 1 .2 1.7 1 2v2c-2.9-3-4.7-6.7-5.5-11a85 85 0 0 1-.5-13Z"/><path fill="#7af" d="M166.5 89.5c1.4-1 3-1.3 5-1 .3 1.6 0 3-1 4v-3h-4Z"/><path fill="#6090ff" d="m28.5 84.5 2 1c2.5 2 4.8 4.1 7 6.5 3.4.3 6.7 1 10 2-8 .7-8 1.3 0 2l-3 1c6 3 12.3 5 19 6 .6.4.9.9 1 1.5a42.1 42.1 0 0 1-36-20Z"/><path fill="#76a0ff" d="M106.5 82.5c-4 7.7-10 13.3-18 17-1-.5-1-1.1 0-2a13 13 0 0 0-5-1.5l8-1-5-1c3.5-.2 6.8-.8 10-2l7-7.5 3-2Z"/><path fill="#b0ceff" d="M99.5 99.5c0-1-.4-2-1-3 4.6-.7 5 .3 1 3Z"/><path fill="#97b6ff" d="M60.5 93.5c-1 1.8-.3 3.2 2 4 1.5 1.4 1.2 2-1 2-1.6-.3-2.6-1.3-3-3v-2c.3-.8 1-1.2 2-1Z"/><path fill="#90b5ff" d="M99.5 99.5c-1.7 1.2-3 .7-4-1.5l1.5-1.5a4.2 4.2 0 0 0 2.5 3Z"/><path fill="#e1ecff" d="M38.5 99.5c.7-.1 1.4 0 2 .5-.7 1-1.2 2.2-1.5 3.5-1.8-1.2-2-2.5-.5-4Z"/><path fill="#397dff" d="M56.5 81.5c7-1.3 14-1.3 21 0a166 166 0 0 0-2 12l2-1a19.8 19.8 0 0 1-8 10c-3.3 1-6 0-8-3 2.2 0 2.5-.6 1-2 2-4.9 2.6-10.2 2-16h-6c.3 3.9 0 7.5-1 11 .2-1-.2-1.7-1-2 .2-3.3.2-6.3 0-9Z"/><path fill="#edf3ff" d="M75.5 93.5c0 1.3-.5 2.3-1.5 3-.2-4.7-.7-9.4-1.5-14a31.2 31.2 0 0 0 0 15.5 7 7 0 0 1-7 3 45.6 45.6 0 0 0 0-19l1-.5c1.7 24 2.7 24 3 0 2-.2 4 0 6 .5-1.3 4-1.3 7.8 0 11.5Z"/><path fill="#e1ecff" d="M41.5 101.5c2.3.7 3 2 2 4a5.8 5.8 0 0 1-2-4Z"/><path fill="#2170ff" d="M82.5 100.5c-3.8 2.3-7.8 3-12 2 4-.8 8-1.5 12-2Z"/><path fill="#bfd7ff" d="M88.5 103.5c1.2-1.3 2.5-1.3 4 0-1.2.4-2.5.4-4 0Z"/><path fill="#92b8ff" d="M82.5 100.5c1-.1 2 0 3 .5-5 2.7-10.3 3.9-16 3.5v-2h1c4.2 1 8.2.3 12-2Z"/><path fill="#deeaff" d="M85.5 103.5c1.8.7 2.3 2 1.5 4-.8-1.2-1.3-2.6-1.5-4Z"/><path fill="#93baff" d="M46.5 104.5c3.3-.7 3.6.3 1 3-.5-1.1-.8-2.1-1-3Z"/><path fill="#aecdff" d="M60.5 107.5a5.4 5.4 0 0 0-3.5 3c-.7-3.5.5-4.5 3.5-3Z"/><path fill="#aeccff" d="M81.5 105.5c.8 1 1.8 1.8 3 2.5a5 5 0 0 1-3 .5v-3Z"/><path fill="#b4ccff" d="M50.5 106.5c1.3.9 1.3 1.9 0 3-1-1-1-2 0-3Z"/><path fill="#d2e1ff" d="M65.5 107.5c2.7 1.7 2.4 3-1 4l-1-.5a4 4 0 0 0 2-3.5Z"/><path fill="#d6e6ff" d="M60.5 107.5c.9 1.1 1.7 1.1 2.5 0 .6 1.5.1 2.5-1.5 3a3 3 0 0 1-1-3Z"/><path fill="#ced6ff" d="M74.5 106.5c3.4.7 3.7 2 1 4a4.9 4.9 0 0 1-1-4Z"/></svg>