<svg xmlns="http://www.w3.org/2000/svg" xmlns:xlink="http://www.w3.org/1999/xlink" version="1.0" viewBox="0 0 1248 316"><defs><path id="a" fill="#06f" d="M159 25c-38 4-74 25-96 56a138 138 0 0 0-9 136 130 130 0 0 0 116 73A132 132 0 0 0 273 71c-13-16-24-25-42-34-10-5-21-9-32-11-7-1-32-2-39-1zm14 4c2 1 3 5 0 6-1 1-1 1 1 4l1 3c-1 2-4 1-5-2l-2-2v3c0 2 0 2-3 2-4 0-5-1-3-2s2-3 1-7v-6c1-2 7-1 10 1zm17 8 1 6-3 1c-2 0-2 0-2-2s0-3-2-3c-1 0-2 0-2 2l-2 2c-3 0-4-2-2-4l4-7c3-5 3-5 4-3l4 8zm-31-7c0 1-1 2-4 2-2-1-3 0-3 1l2 2c3 0 3 2 0 3-2 0-2 1-2 3v3l-3 1c-1 0-2 0-1-6l-1-7c-2-3-2-3 10-4 1 0 2 0 2 2zm44 1c4 0 4 2 1 2-3 1-5 7-3 9 3 3 7-2 7-8 0-2 0-2 2-1 2 0 2 1 1 3l-3 6c-2 6-9 6-11 1-2-2-2-3 0-8l2-5 4 1zm-72 9 3 7c1 1 1 1-1 2-3 2-5 2-5 0 1-2-2-11-3-11-3 0 1-4 4-4l2 6zm90-3c5 2 8 6 6 11-2 4-7 5-14 2-4-1-4-2-3-3 3-2 6-8 6-10s0-2 5 0zm-99 4c0 2 0 2-2 1l-3 1 5 9c1 1 1 1-1 2-3 2-6 3-5 1l-1-6c-2-4-5-5-6-2 0 3-2 3-3 0-1-2 0-2 6-5 7-4 9-4 10-1zm22-2c0 1-1 2-3 2l-4 2c-2 0-2 0-2-2 1-2 9-4 9-2zm46 8c10 1 27 8 41 16a116 116 0 0 1 41 146c-8 15-23 33-37 42-8 6-23 12-34 16-8 2-10 2-28 2-22 0-28 0-44-7-35-14-59-45-67-82-1-10-1-32 1-43a113 113 0 0 1 67-83c15-7 35-9 60-7zm-88 3 4 6c4 5 3 7-3 5h-7l4 4v2c-2 3-3 2-3 0l-4-6c-4-4-3-6 3-5l5 1c2 1 1-1-1-4-1-2-2-3-1-4s3-1 3 1zm160 15c2 3 2 3 1 5l-2 1v-1l-1-3c-1-2-4-3-7-1-3 1-2 3 0 6 3 2 2 4-1 3s-5-5-4-8c0-2 6-5 9-5 2 0 4 2 5 3zM89 68l7 2-2 3h-3c-1-1-3-1-4 2v2c2 0 2 1 1 3-2 2-3 3-3 0l-3-7c-2-3-3-6-2-7l9 2zm181 7c3 3 3 6 1 7-1 0-2-1-2-3l-3-3-1 2c2 1 1 4-1 4l-1-1-1-2c-3 0-2 3 0 4 2 2 2 2 1 3s-2 1-5-2c-3-5-4-7-2-7l6-3 4-3 4 4zm10 17c-2 5-1 7 1 4 2-2 2-2 3-1 2 1 2 3 1 3l-6 3-6 2 1-5 1-5-3 2-4 2c-2-2-1-4 4-5l5-4c1-2 2-2 3-1v5zm11 16c2 6 2 8 0 8l-1-1c0-2 0-2-6 0-4 1-6 1-6-2l2-2 5-1c3-1 3-1 2-3-2-3-1-4 1-4l3 5zm-235-1-2 3c-2 2-2 3-1 5 1 1 1 1 3-3l5-5c2 0 4 3 4 6s-4 9-6 8l1-3c2-2 3-6 1-6l-1 1-3 4c-3 3-3 3-5 1-3-2-3-6 0-9 2-3 4-4 4-2zm240 17v5h-3c1-1 0-6-1-6l-1 3c1 1 1 2-1 2l-1-2c0-1-1-2-2-1l-2 2 2 2-1 2c-2 0-3-1-4-7 0-3 0-4 1-3l5-1c6-2 7-1 8 4zm-238 8c2 2 1 6-1 9-2 1-3 2-8 2s-5 0-5-2 0-3 6-3c5 1 5 0 6-2l-4-3-6-1c-1 1-1 0-1-1l1-3c1-1 10 2 12 4zm241 4v6c-1 2-5 4-6 2h-4c-3 2-3 2-3 0l2-4c3 0 3-3 0-3h-3c-1-2 0-4 4-4h6c2-1 3-1 4 3zM53 156c2 0 3 2 1 3l-1 2c0 1 0 2-1 1l-3 1c-2 1-2 1-2-1l-2-4c-1-1-1-1 1-1l3-2c0-2 0-2 2-1l2 2zm245 2-1 1-1 3-3 1c-2 0-3-1-3-2l-1-3v-2c1 1 2 0 3-1s2-1 3 1l3 2zM52 174l2 1c2 1 2 1 1 2v3c0 2 0 2-2 1l-2 1c-2 1-2 1-2-1l-2-3v-2h2l1-1 1-2 1 1zm241 0 2 2c2 0 2 1 1 1l-1 3c0 1-1 2-3 2s-3-1-3-2l-1-3c-1 0-1-1 1-1l2-2 1-1 1 1zM55 192l2 1c1 0 2 1 2 4 0 2-1 3-2 3h-2c0 2-1 1-3-1v-5c1-3 3-4 3-2zm236 6v2l-1 1-4-1c-1 0-2 0-1-1l-1-3c-1-2-1-2 1-2l3-1 2 1c2 2 2 2 1 4zM65 211l2 3c0 2 0 3-2 3l-3 1c-1 1-1 1-1-1l-2-3v-1l2-3c0-2 0-2 1-1l3 1zm217 1c2 2 2 2 1 4s-6 3-6 1l-1-3 1-2 2-1c0-1 1-1 3 1zM72 224c2 2 1 4-2 4-3-1-4-3-2-4h4zm203 1-2 2c-2 0-3-2-1-3 1-1 2-1 2 1zM84 241l-3 4c2 2 5 1 6-1l3-2c1 1 0 2-2 4-4 2-6 3-8 0-1-2 0-5 2-6l2-2c0-2 0-2 2-1s1 2-2 4zm13 8v2h-2c-1-3-2-2-1 1 0 4 0 4-2 4s-4-2-5-4c0-3 2-3 2 0l2 2v-4c-1-1 1-3 3-3l3 2zm155-1v2l2 1h2l-2 3-10 7-3-4c-2-3-2-3 0-5h3v1l-2 1 2 1 1 1c0 2 1 2 3 1 1-1 1-2-1-4-2-3-2-3-1-5h6zm-14 9c-1 1-1 2 1 4 2 1 2 2 1 3s-1 1-3-1l-2-3c0-1-1-1-1 1h-2c0-2 5-6 6-5v1zm-128 2-2 5-1 4-3-3c0-1 0-2-2-2h-2c-2 0 7-6 9-6l1 2zm7 5c2 4 2 4 2 2l1-2 6 3c4 1 6 3 6 4h-1c-2-1-3 1-3 4l-2 2c-2 0-2 0-2-2 2-4 2-6 1-6l-2-1c0-3-2-2-3 1-2 4-3 5-5 1-1-3-1-3-2-1 0 2-3 2-2 0l3-9 3 4zm113-1 1 3c3 2 2 4-1 3h-2v3l-4-4c-2-4-2-5 2-3 3 1 4 0 2-1-1-1 0-3 2-3v2zm-9 5-2 1h2v3c0 2 0 2 1 1h3l-4 3h-3l-3-7 2-2 4-1c1 1 0 2-1 2zm-8 3-2 1c-3-1-4 3-1 5h2c1-2 2-2 2-1l1 2h-9c-2-2-1-6 1-7 3-2 6-2 6 0zm-76 1v3l-1 4c0 2 0 3-2 3-3 0-3-1-1-6s2-5 4-4zm25 4c2 0 3 3 1 5v2c2 2 3 1 5-3 0-3 2-5 2-5l5 11-3-1c-2-2-4-3-4-1s-1 2-3 1l-3-1h-2l-1 1c-2 0-2-1-2-4 0-4 0-5-3-5s-4 2-1 3l1 1-2 1c-1-1-1 0-2 1l-2 2v-9c0-1 7-1 14 1zm34 0c4 3 2 7-5 8-3 0-3 0-2-1v-3c-2-5-1-6 2-6l5 2zm-16 0c-1 2 0 7 2 7l1-6 1-2c2 0 2 7 0 9 0 1-5 1-6-1l-2-4c0-3 0-4 2-4l1 1zm-34 2h-7c-1-1 0-1 3-1l4 1z"/><path id="b" fill="#06f" d="M166 30c0 2 1 4 3 4 1 0 1-2-1-4h-2zm18 5v1h1c0-2-1-2-1-1zm34 8c-3 5-3 6 0 6 5 0 7-6 4-8-2-2-2-2-4 2zm-68 8c-18 5-29 9-41 19a110 110 0 0 0 28 192l27 6c5 0 1-2-8-3a91 91 0 0 1-26-8l-2-1-3-1 5-1 8-1h-9l-11-1c-2-1-1-2 12-2l15-1h-16l-16-1c-5-1-1-2 13-2h16l-18-1c-13 0-19-1-19-2l18-1h18l-19-1h-19l-7-6-6-7-2-4-3-3 12-1h12v-32l6-1h5v6c1 4 1-4 1-17v-23l-1 16v16h-11v-39h4l5 2c1 1 2 1 2-1s1-3 3-3l3 1h1c1-1 1 0 1 4l1 6 1 1 1 2v2l-1 2-1 1v7c-1 0-2 17 0 17l1-2h1c1 1 0 2-1 2l-2 4c0 3 0 3 1 2s1 0 1 4l-1 7c-1 1-1 3 1 3l1 1-2 1v3c2 1 1 3-2 3h-3l4 2 2 1c-3 1-13 0-10-1l1-2 4-1c3 0 3 0 1-1l-2-2c0-2-2-3-4-4s-2-2-2-4c0-7 0-8-2-8-3-1-3 0-3 2 0 3 0 3 1 1 1-3 2-3 2 1 0 3 0 3-2 3h-3l1 1 1 2-1 1h-1l3 1c7 0 7 9 0 12-2 1 3 1 10 1h13l-2-2c-2-2-2-2-2-32a143 143 0 0 1 2-35v-5h3l5 2v1c-3-1-6 1-6 3l1 3v6h3c2 0 3-1 3-2 0-2-1-3-2-3v-1c1 0 2-1 2-3v-2l1 3 2 11 1 13-1 7c-1 3 0 5 3 5h2v-22c0-18 0-23 2-25v-6c-1-1-2-2-3-1-3 0-2 2 0 1 2 0 2 0 2 2s-1 2-3 2c-2 1-3 0-3-2 0-4 4-6 10-6 5 1 6 1 4-1-2-1-10-1-11 1l-9 1-8 1 1 3v2c-1 2-2 2-4 2h-2c0 1-1 2-3 2-2-1-2-1-2-4v-3l-1 2c0 3-3 5-5 3-2-3-1-7 3-8l7-1c4 0 5 0 4-1l-9-1-5 1c5 1 0 2-7 2s-8 0-7 1v7c-2 2-5 0-5-3-1-2 0-3 1-2s2 0 1-1l-3-1v5c0 3 0 3-2 3-3 0-3 0-2-3 1-2-1-4-2-2v1h1l-1 1-1 1c1 1 0 1-1 1-2 0-3-1-3-4 1-3 7-5 11-5 3 1 4 0 4-1 1-1 0-1-5-1s-7-1-3-2l2-1h-2c-1 0-2-1-2-3v-2h79a611 611 0 0 1 75 3l-6 1h7c5 0 4 1-5 1l-12 1h11l12 1-4 1-6 2c-3 2-16 2-18 0s-11-2-13 0-15 2-17-1c-2-1-9-1-13 1l-10 1h-7v4c0 4-2 7-4 4h-2l-2 1-1 1 2 1c3 0 4 3 3 20v11l1-5 1 6 1 10 4-2c4-2 5-2 10 0 4 2 4 2 5 1l2-2c1 1 1 0 1-1l-1-3-1-1v-2l1 1c1 1 1-1 1-5l-1-6h-1l1-2 1-10c-1-10-1-10 1-10 5-1 6-1 6 22l-1 22-1-3c-1-2-1-2-1 1s0 3 2 3 3-1 3-3v-27l1 12 1 11v-10l1-18 1-8h10v4l1 6c2 1 2 5 2 30v29l-3 2-2 3h12c10 0 12 0 10-1-4-3-6-9-2-10v-1c-2 0-2-1-2-10v-11h5c4-1 4-1 1-1-6 0-6 1-6-21v-19h9l1 21 1 21v-19l1-19 1 29c0 17 0 29 1 27h1l-1 2-1 3-2 2-1 2-1 3c0 2 1 2 12 2h13l-3 6h-3v1c2 0 1 1-3 5l-3 4-2 1-2 2-3 2-2 2v1l-17 1h-15l14 1c12 0 15 1 11 2l-14 1h-13l12 1c11 0 12 0 10 1l-8 2h-7l5 1c5 1 5 1 1 1-3 0-3 0-2 1s0 1-3 1c-2 0-3 0-2 1s-2 2-7 2c-2 0-3 0-2 1l-18 4c-5 2-5 3 1 2a110 110 0 0 0 95-85c2-9 2-12 2-25-1-27-8-46-25-68-24-31-67-46-106-38zm47 3c19 5 34 13 48 27 14 13 22 27 28 44l5 24-13 1h-13v3l1 2 13-1h12v7h-12l-10-1c4 0 3-2-1-2-2 0-3 0-3 2v22c1-2 1-1 1 3s0 6-1 5-1 3-1 9l-1 10v1c2 0 2 0 1 1l-4 2v1c1 1 1 1-1 1-3 0-4-3-1-3h3l1-1-1-24-1-23-1-2h-1c-1 1-1 1-1-2l1-3c1 1 1 0 1-1l-1-2v-1c1 0 2-5 0-5l-1-2c0-2 1-2 3-2s2 1 2 4l1 4c1 1 1 0 1-2l1-3 1-1c0-2 1-3 2-3l3-2v-6l-3-3-1-3c-1-3 0-5 5-11 5-5 6-7 5-8l-2-1-4-1a1213 1213 0 0 0-68-27l-11-4c-8-2-8-2-12-1a777 777 0 0 1-59 23l-11 4a162 162 0 0 0-18 7l-1 1 7 10c5 4 5 9 2 12-3 2-2 8 1 10 1 0 2 1 2 4v3H74l8 1c8 1 8 1 3 1-6 0-6 0-4 2l2 1 4-1c2 0 3 0 3 2 0 5-1 5-12 5l-10 1v1c-5 0-2-25 4-43 6-14 13-25 25-38a105 105 0 0 1 99-28zm-26 24-19 7c-1-1-1-1 8-5 8-3 12-4 11-2zm9 1 9 4 2 1h-2l-17-6c-1-1 2-1 8 1zm2 4 9 4c-2 0-2 0-1 1h3c1-1 16 4 16 6 0 1 0 2 2 2v-1a2870 2870 0 0 1 42 17c6 4-17-3-35-11l-6-2-35-13c-6-2-4-2-31 8a1076 1076 0 0 1-59 19l4-2 13-6c22-9 28-11 29-10h2c2 0 2 0 1-1s-1-1 1-2l8-3 6-1-1 1-1 1c1 0 4-1 4-3l9-4 10-4 10 4zm-32 3-15 5 6-3c7-3 10-4 8-2zm54 2 5 3-15-6 10 3zm-30 5 5 1 4 1 3 1 2 1 6 2 7 3 3 1 3 1 4 1h2l-2 1c-3 1-3 1 0 1 4 0 15 4 12 4l2 1a1755 1755 0 0 1-104-2l7-3 7-2 5-2 6-2 2-1 2-1 3-1 2-1h2l2-1 4-2h3l2-1c-1-1 1-2 4-2l2 1zm50 3 36 14 3 2-17-6-18-7-4-1-7-4c-4-1-7-3-5-3l12 5zm-92-4-22 10a523 523 0 0 0 22-10zm42 22a1400 1400 0 0 1-2 2 2607 2607 0 0 1 2-2zm-62 5h-2l-2-1h2l2 1zm15 0-3 1 1-1h2zm7 0h-3c-1-1 0-1 2-1 1 0 2 0 1 1zm23 0-4 1c-5 0-5-1 0-2l4 1zm23 0-1 1-1-1 1-1 1 1zm3 0-1 1v-1l1-1v1zm8 0h-2v-1l2 1zm22 0-18-1h9l9 1zm15 0-1 1-2-1 2-1 1 1zm15 0-1 1-1-1v-1l2 1zm-103 1h-3c-1-1 0-1 2-1 1 0 2 0 1 1zm6 0h-3c-1-1 0-1 2-1 1 0 2 0 1 1zm27 0h-2v-1l2 1zm4 0h-2v-1l2 1zm17 14 2 4c0 2-1 3-5 4-6 1-8 0-6-2l1-2 1-1 2 1h1c2-1 0-2-3-2-2 0-3 0-3 3s-3 4-5 2-1-6 2-8c4-1 10-1 13 1zm30 0 2 4c1 2 0 3-2 3-3 0-3-1-3-4l-1-1v4c0 3 0 3-2 3s-3 0-3-2l2-2c1-1 1-1-1-1l-2 2-2 1c-3-1-4-5-1-7s10-2 13 0zm29-1c4 1 5 6 3 8h-4c-1-2-1-2 1-2l2-1c0-3-2-4-4-4-1 0-1 1 1 1 2 1 3 4 0 3l-1-1-2-1-1 1v1l-1 1 1 1 2 1-2 1c-3 0-3 0-2-3 1-2-1-6-3-4l1 1c2 1 0 5-2 5-4 0-4-6 0-8h11zM97 144l1 12a715 715 0 0 0-1 56c-1 2-5 1-5-2a810 810 0 0 1 3-66h2zm125 2v8l1 4-2 12a318 318 0 0 0-1-19v-5l-1 6c-1 3-2 8-1 12l2 17c2 2 3 5 2 11v13c0 6 0 7-3 8l-6-2 1-1 1-1h-1l-1-1s0-2 1-1l1-15-1-14-1-3c0-2 0-3 1-2s1-2 1-4l-1-4c-1 1-1-3-1-8l1-8 1-2c0-3 0-3 3-3l4 2zm-45 3v8l-1 6h-9v-15h4l6 1zm-69 33-1 31-1-30c0-27 0-32 2-32v31zm32-29h-1l1-2v2zm0 5v1l-1-1v-1l2 1zm-62 7 4 1 1 1v-2l3-1c3 0 3 1 4 3 0 3 0 3-4 3-5 0-6 2-5 6 1 1 1 1 1-2 1-2 1-3 4-2 4 0 4 1 3 5 0 1-1 2-3 2-3-1-3-1-3 5 0 5 0 5 2 5 3 0 3 0 3-5l1-4 1 17c-1 17-1 17-3 20-3 3-5 1-6-4 0-5 2-7 5-7 4 0 4-1 1-3-2-1-2-2-1-3h2c1-1 1-2-1-3-4-3-4-2-4 2s0 4-1 3-2-2-2 4l-1 6-2-4-2-8-1-3c-2 0-4-5-4-7l3 1h2v-5c0-5 0-6-2-6s-2 1-2 5c0 3 0 4-1 3s-3-7-4-16v-8h4l8 1zm180 0c0 2 0 2 2 1s3-2 4 0l7 1h4l-4-1h-4l4-1c5-1 6-1 6 4l-1 4-1-1c0-2-1-2-6-2-4 0-6 0-5 1l1 2 1 3 1-2c0-2 0-2 5-1l5 2-5 21-4 1c-2 0-2 0-2 3l1 4c1 1-6 15-8 15l-3-2c-2-2-2-4-2-7 0-4 1-4 3-4 3 0 3 0 3-4 0-5 0-5-2-5s-3 1-3 2l2 2 1 1-2 1c-1 0-2-2-2-6l1-6v-1l-1-1h2c2 2 6 3 6 1h-1c-2 0-2-1-2-5s0-5-2-5c-1 0-2 1-2 3 0 1 0 2 2 1 2 0 2 0-1 2-2 1-2 1-2-5s0-7 2-7 2 0 1-1c-3-1-4-5-2-6v-1l-1-1 2-1 2 2zm-157 7h-1l1-2v2zm75-1-4 1-4-1 4-1 4 1zm71 9c-1 2-1 1-1-3l1-3v6zm-173 6h-1l-1-1 1-1 1 2zm171 1c-1 1-1 0-1-1l1-1v2zm0 10c-1 1-1 0-1-1l1-1v2zm-3 2c-1 1-1 0-1-1l1-1v2zm-137 6c0 3 0 3-1 1v-3c1-2 1-1 1 2zm137 1c-1 1-1 0-1-2 0-1 0-2 1-1v3zm-126-1-1 1-1-1 1-2 1 2zm131 5-1 1-1-3c0-2 0-2 1-1l1 3zm-143 4-1 1v-1l1-2v2zm118 1v2c2 1-1 2-5 2s-6-1-3-2v-2l3-1c3-1 5 0 4 1zm-124 0 1 2 2 1H90c-2-1-2-1 1-1 3-1 3-1 2-2-2-1-2-1 1-1 2 0 4 0 3 1zm156 2 1 1h-11c-3 0-3 0-1-1h11z"/><path id="c" fill="#06f" d="M150 66c-7 2-11 4-11 5 0 2 5 3 8 2 8-2 11-3 10-4l3-2c3-1 3-3 0-3l-10 2zm48 4 2 5 3 1 7 3 5 1 3-1 1-2-3-2-2-2-2-1-2-2h-12zM67 154l1 2 1-1 4-1 5-1-5-1c-5 0-6 0-6 2zm14 5c-1 1 0 1 1 1l1-1h-2zm181 0c-2 1-2 1 0 1l4-1 1-1-5 1zm-13 19h1v-2l-1 2zm-80-96h3v-1l-3 1zm50 17 1 1-1-1c-1-1-1-1 0 0zm4 2h2l-2-1v1zm11 4 3 1v-1h-3zm-131 2v1l2-1 1-1-3 1zm-5 2v1l2-1 1-1-3 1zm150 1 3 1-1-1-2-1v1zm-78-8c0 6 0 6 2 5 2 0 2 0 1-1-1 0-2-1-2-5-1-4-1-4-1 1zm18-2h2c1-1 0-1-1-1l-1 1zm23 9h2c1-1 0-1-1-1l-1 1zm-89 3h2c1-1 0-1-1-1l-1 1zm6 0h4l-2-1c-2 0-4 0-2 1zm22 0h7l-4-1c-3 0-5 0-3 1zm12 0h4c1-1 0-1-2-1l-2 1zm8 0h2c1-1 0-1-1-1l-1 1zm16 0h5l-3-1c-2 0-3 0-2 1zm14 0h2c1-1 0-1-1-1l-1 1zm7 0h6c2 0 1-1-3-1l-3 1zm-21 22 4 1h3l-7-1zm36 0 2 2c1 1 1 1 0 0l-2-2zM95 162c0 1 0 2 1 1v-2c-1-1-1 0-1 1zm0 8c0 2 0 3 1 2v-5l-1 2zm-2 8h1v-2l-1 2zm2 14c0 8 1 11 1 7a175 175 0 0 0-1-7zm-2-5c0 4 0 6 1 4v-8l-1 4zm126 3 1 5 1-3-1-5-1 3zm-3 22h2l-2-1v1zm-48-61 1 6c0 4 1 5 3 5s3-1 3-6v-6c0-2-6-1-7 1zM68 173c0 2 0 2 1 0 1-1 1-1 1 1s0 2 2 1c1-2 1-2 3 0 1 1 1 1 2-1 0-2 1-3 2-3l-5-1h-7l1 3zm1 7c0 1 0 2 1 1v-2c-1-1-1 0-1 1zm190-10 1 4c1 2 1 2 2 1v-3l-3-2zm9 10c-2 1-2 3-1 3 4 1 5 0 5-2 0-1 0-2-2-2l-2 1zm-2 7c0 2 1 2 3 2 3 0 3 0 3-2l-3-2c-3 0-3 0-3 2zm0 4h1l1-1h-1l-1 1zm-49 25h2c1-1 0-1-1-1l-1 1zm-116-90h4c1-1 0-1-2-1l-2 1zm9 0h4c1-1 0-1-2-1l-2 1zm11 0h4c2-1 1-1-2-1l-2 1zm8 0h2c1-1 0-1-1-1l-1 1zm6 0h2l-2-1v1zm7 0h3c1-1 0-1-1-1-2 0-3 0-2 1zm7 0h4c1-1 0-1-2-1-3 0-3 0-2 1zm19 0h10c2-1 0-1-5-1l-5 1zm24 0h2c1-1 0-1-1-1l-1 1zm18 0h6c1-1 0-1-3-1l-3 1zm24 0h2l-2-1v1zm-136 2h2l-2-1v1zm5 0h4c2-1 1-1-2-1l-2 1zm8 0h2c1-1 0-1-1-1l-1 1zm9 0h4c2-1 1-1-2-1l-2 1zm10 0h2l-2-1v1zm5 0h4c1-1 0-1-2-1-3 0-3 0-2 1zm28 0zm-57 3h4c2-1 1-1-2-1l-2 1zm33 0h6c2-1 1-1-3-1l-3 1zm31 0h5c2-1 0-1-2-1-3 0-4 0-3 1zm29 0h6c2-1 1-1-3-1l-3 1zm29 0h4c2-1 1-1-2-1l-2 1zm9 0h2c1-1 0-1-1-1l-1 1zm-112 4 2 1c-2 0-3 2-1 2 1 1 2 0 3-2l2-2h-5c-4 0-4 0-1 1zm34 0c-2 2-3 4-1 4l1-2 2-1c2 1 2 1 1-1l-1-1-2 1zm-36 13v10l1 7v-10c0-9 0-11-1-7zm-11 4c0 2 0 3 3 3 2-1 2-1 2-3 0-3 0-3-2-3s-3 1-3 3zm4 0-1 1-1-1 1-1 1 1zm85 0c0 3 0 3 1 1 0-3 2-3 2 0l1 2 1-3c0-2 0-3-2-3-3 0-3 0-3 3zm25 0c0 4 2 4 2 0 0-2 0-2 1 1v6c0 2 1 3 3 2v-1l-1-6c0-5 0-5-2-5-3 0-3 1-3 3zm-114 7c0 3 0 3 3 3 2 0 4-2 3-5-1-1-1-1-2 1l-1 3v-3c-1-3-3-3-3 1zm89 0c0 2 0 3 3 2 1 0 2-1 2-3s-1-3-3-1h-1c-1-1-1-1-1 2z"/><path id="d" fill="#06f" d="m226 158 1 4 1-3-1-3-1 2zm-114 16v3l1 3c0 3 0 3 2 3 3 0 4-1 3-4 0-2-2-1-2 1l-1 2-1-4 1-5 1 2 1 1 1-1v-3l-3-1c-2 0-3 1-3 3zm25-2c-1 2 0 5 1 5l2-3c1-3 1-3 1 4v3c-1 1-1 1-1-1l-1-2s-2 1-2 3 0 2 4 2 4 0 3-2v-6c0-4 0-4-3-4l-4 1zm52 2c0 2 0 3 1 2v-4c-1-1-1 0-1 2zm12 3v6l1-5 1-5 1 1v5c0 6 2 4 2-2s0-6-3-6-2 0-2 6zm25 0 1 6 1-6-1-6-1 6zm3 0 1 6 1-6-1-6-1 6zm-61 9c-4 3-11 5-21 6l-9 2v9c0 11 1 19 4 28l1 5a53 53 0 0 0 23 28l6 3 5-3c11-6 19-16 24-29 2-7 2-10 3-22v-14l-1 11c-1 14-3 22-7 31-4 8-13 18-22 22-2 1-3 1-7-2-12-7-18-15-23-29-3-10-5-25-3-33v-4l7-1c8-1 14-3 19-5l4-3 5 3c5 2 14 5 21 5 3 1 5 1 5 3 1 1 1 1 1-1s0-3-3-3a69 69 0 0 1-29-9l-3 2zm35-1-5 1h11c0-1-1-2-6-1zm-64 1h4l-3-1c-2 0-2 0-1 1zm-16 6c0 2 0 3 1 2v-5l-1 2z"/><path id="e" fill="#06f" d="m166 193-15 4-8 1v9l1 9 1-1c0-1 52-2 54 0v-14c0-3-1-3-9-4a73 73 0 0 1-18-7l-6 3zm8 4c1 2 0 5-3 5-2 0-3-3-1-5h4zm-10 1c1 1 0 4-2 4s-3-2-2-4h4zm18 0c3 1 2 4-1 4-1 0-2 0-2-2 0-3 1-3 3-2zm-29 4-2 2c-2 0-3-3-1-4 1-1 3 0 3 2zm42 0c0 2-4 3-5 0 0-1 1-3 4-2 1 0 2 1 1 2zm-20 5-1 1c0 2-4 3-4 0-1-2 1-4 3-3l2 2zm-11-1c1 2 0 4-2 4s-4-3-2-4h4zm21 3-3 1c-2 1-4-3-1-4 2-1 4 0 4 3zm-32-1v2c-2 2-5 1-4-1s2-2 4-1zm40 0c3 0 2 2 0 3s-3 0-3-1c-1-3 0-4 3-2zm41-8v10c1 1 1-3 1-9v-11l-1 10zm-8 0 1 7 1-2 1-2v6c1 0 2-2 2-7l-1-7-2-1c-2 0-2 1-2 6zm3-2v4l-1-3c0-4 1-4 1-1zm-22 7 1 5v-4c0-6-1-6-1-1zm-82 7h2l-2-1v1zm24 6v6l-1 6c-1 1-1 2 1 6l3 6 1-13c0-11 0-12-2-12l-2 1z"/><path id="f" fill="#06f" d="m158 218-1 14v14l-3-1c-2-3-2-2 0 1 5 7 17 16 19 14l-1-1c-2 0-2-3-2-21 0-20 0-21-2-21s-2 1-2 19l-1 19-2-2c-2-1-2-4-2-19l-1-17-3 1zm16 20 1 21c2 0 11-8 14-13 6-8 7-12 6-21 0-7-1-8-2-8-2 0-2 1-2 12 0 10 0 13-2 15l-2 2-1-14c0-13 0-15-2-15s-1 3-1 17c0 16 0 18-2 19l-2 2-1-19c0-18 0-19-2-19s-2 1-2 21zm-64-15h3c1-1 0-1-2-1-1 0-2 0-1 1zm7 0h2c1-1 0-1-1-1l-1 1zm106 0h4c1-1 0-1-2-1l-2 1zm29 0h2l-2-1v1zm-160 4h2l-2-1v1zm8 0h8c3-1 1-1-4-1l-4 1zm16 0h4c1-1 0-1-2-1l-2 1zm101 0zm-117 4zm30 0h2c1-1 0-1-1-1l-1 1zm79 0h5c2-1 0-1-2-1-3 0-4 0-3 1zm10 0h2l-2-1v1zm7 0h10c2-1 0-1-5-1l-5 1zm-118 4zm108 0zm-105 4h9c2 0 1-1-4-1s-7 0-5 1zm102 0zm-3 3zm-85 10h4c1-1 0-1-2-1l-2 1zm7 4h3c1-1 0-1-1-1-2 0-3 0-2 1zm4 2h3c1-1 0-1-1-1-2 0-3 0-2 1zm68 0h2c1-1 0-1-1-1l-1 1zM85 72l1 1c1-1 1-2-1-2l-1 1zm208 66c-1 1 0 3 2 3l1-2c0-2-2-3-3-1zm-45 112 1 1v-1l-1-1v1zm3 3 1 1v-1l-1-1v1zm-92 25 1 1 2-1-1-1-2 1zm33 1c0 4 3 4 3 0 0-2-1-3-2-3s-2 1-1 3zM569 85l-20 56 6 1h7l1-5 2-6h19l2 6 1 5h7l6-1-21-58-5-1c-4 0-4 0-5 3zm9 27 2 7-5 1-6-1 2-7 3-8c0-2 2 0 4 8zm99-29-1 5v4h12V82h-5l-6 1zm50 0-1 29c0 31 0 30 6 30 7 0 7 0 7-13v-11h21l1-6v-5h-22v-7c0-5 0-6 2-6h22l1-6v-6h-18l-19 1zm181 0-1 8c0 8-1 9-3 7l-6-1c-4-1-6 0-9 2-6 4-7 7-7 20 0 11 1 13 3 16 1 2 3 5 5 5 3 2 10 2 14 1h14V83c0-1-9-2-10 0zm-4 25c3 2 4 14 2 19-2 4-2 4-6 4-3 0-4 0-5-3-2-4-1-17 1-19 1-2 6-3 8-1zM655 87c-4 2-4 2-5 6 0 4 0 4-3 4s-3 0-3 5 0 4 3 4h3v13c0 15 1 18 8 21l8 2c3-1 4-1 4-4 0-5-1-7-4-7l-3-1-1-12v-12h8v-9h-8v-6c0-7 0-7-7-4zm-187 4c-9 2-15 10-14 19 1 8 6 12 19 16 10 2 13 5 12 8-2 6-12 6-21 1l-5-3-3 4-4 5 3 2c6 5 19 8 27 6 10-2 15-8 15-17 0-10-3-13-19-18-10-3-10-4-11-7 0-2 0-3 2-4 2-2 10-1 16 2l5 1c4-6 5-8 4-9-3-4-19-8-26-6zm-94 19c0 23 1 28 7 33 5 5 9 6 17 6 12 1 19-3 23-11 2-4 3-6 3-26V91h-12v17c0 19-1 23-5 27-2 2-4 3-8 3s-6 0-8-3c-4-4-5-8-5-27V91h-12v19zm245-13c-2 2-4 2-4 1l-6-1h-6v45h12v-15c0-15 0-16 2-18 3-2 6-3 8 0 2 1 2 4 2 17v16h12v-17l-1-20c-3-7-12-11-19-8zm165 1h-3l-6-1h-6v45h12v-15c0-19 1-20 8-20l5-1v-5c0-5 0-5-3-5l-7 2zm24-1c-3 1-7 5-9 9s-1 6 4 6c4 0 5 0 6-2 2-3 3-4 7-4s5 2 5 6v3h-6c-9 0-13 2-16 6-4 6-2 15 4 19 4 2 14 3 16 1h2l7 1h5v-16c0-18-1-22-5-26-4-3-13-5-20-3zm13 29c0 5-2 6-7 6-4-1-5-1-5-4 0-4 2-5 8-5 4 0 4 0 4 3zm-145-7v23h12V97h-12v23zm164-6c0 18 1 22 6 26 3 2 5 2 10 3 8 0 11-1 15-5s5-9 5-25V97h-12v15c0 18 0 19-6 19s-6-2-6-19V97h-12v16zm-144-6-1 6v5h24v-12h-11l-12 1zm-265 35 1 6 6 1h7v-13h-14v6zm74 0v7h13v-13h-13v7zm107 46a58 58 0 0 0-3 58l4 7 4 1h5l-2-4c-8-17-8-40-1-58l2-6-4-1c-2 0-3 1-5 3zm204-3 3 7c7 17 7 39 0 56l-3 6h5c4-1 5-1 7-6 9-16 10-37 2-53-4-8-6-10-10-10h-4zm-432 12-7 7c-3 5-3 5-3 21s0 16 3 21c4 6 9 8 18 8 13 0 21-7 21-17v-4l-6 1c-5 0-6 0-6 3-2 7-9 9-15 4-2-2-3-3-3-12-1-18 1-23 9-23 6 0 7 1 8 6 2 4 2 4 7 4l6 1v-4c0-7-4-12-10-16-6-2-16-2-22 0zm254-6-7 6c-2 4-3 5-3 19 0 15 1 20 4 25s9 7 17 7c9 0 15-3 18-10 3-5 3-6 3-19 0-20-2-24-10-28-6-3-16-3-22 0zm16 10c3 2 4 7 4 18 0 14-2 18-9 18s-9-4-9-19c0-11 1-16 4-17h10zm33-10c-9 5-11 13-11 30 1 19 6 26 20 27 12 1 20-4 22-14v-6l-6-1h-5l-1 4c-1 5-3 6-9 6l-6-2c-2-3-2-3-2-16 0-12 0-14 2-16 2-3 3-3 7-3 5 0 8 2 8 6 0 3 1 4 7 4l5-1v-4c0-6-4-12-9-14-6-3-17-3-22 0zm39 27v29h37v-10h-12l-13-1v-12h21v-11h-21v-13h25v-11h-37v29zm52-27-7 6c-2 4-2 5-2 21s0 17 2 21c4 6 9 9 18 9 8 0 14-3 18-8 2-4 2-5 3-19 0-16-1-21-4-25-5-7-19-9-28-5zm18 11c1 2 2 4 2 13 0 18-1 22-9 22-7 0-9-4-9-19s2-18 10-18l6 2zm-284-8c-4 2-4 2-5 6l-1 4h-3c-2 0-2 1-2 4s1 4 3 4h3v12l1 15c2 5 7 8 13 8h5v-5c0-5 0-5-3-5l-4-1v-24h8v-4c0-4-1-5-4-5h-4v-6c0-6 0-6-7-3zm-84 10c-6 3-9 11-9 22s3 17 11 20c7 3 18 2 22-4l3-6v-4l-5 1c-5 0-6 1-7 3l-5 1c-5 0-7-2-7-6 0-2 0-2 13-2h12v-7c-1-9-4-14-9-17-4-2-14-3-19-1zm14 11c4 5 3 6-5 6-5 0-6 0-6-2 0-6 8-8 11-4zm20-10-1 22v20h12v-14c0-15 0-15 2-18 2-1 4-2 5-1 5 1 5 3 5 18v15h12v-15c0-18-1-21-5-25-3-4-10-5-15-3h-4l-6-1c-3 0-5 0-5 2zm78 0c-6 4-9 10-9 21 1 7 1 9 3 13l6 6c7 4 18 3 23-2 3-2 5-9 4-10h-9l-2 2c0 2-5 3-8 2-3 0-6-4-5-6s3-2 13-2h12v-7c-1-13-6-18-18-19-5 0-7 0-10 2zm14 10 2 4c0 2 0 2-6 2-7 0-8-1-6-5 2-3 8-4 10-1zm20 10v22h12v-15c0-16 0-16 3-18l6-1 4 1v-11h-4l-7 1h-3l-6-1h-5v22zm-327 45-1 1 2-1c2-2 1-2-1 0zm-33 16-1 1 3-1h-2zm-17 5h2c1-1 0-1-1-1l-1 1zm-6 1h2c1-1 0-1-1-1l-1 1z"/></defs><use xlink:href="#a"/><use xlink:href="#b"/><use xlink:href="#c"/><use xlink:href="#d"/><use xlink:href="#e"/><use xlink:href="#f"/><use xlink:href="#a"/><use xlink:href="#b"/><use xlink:href="#c"/><use xlink:href="#d"/><use xlink:href="#e"/><use xlink:href="#f"/></svg>