<svg xmlns="http://www.w3.org/2000/svg" version="1.0" viewBox="0 0 290 293">
  <g fill="#1177b6">
    <path d="M127 1A144 144 0 0 0 2 118a217 217 0 0 0 1 60c12 55 51 96 105 110 15 4 53 5 68 2 76-18 123-87 112-165A144 144 0 0 0 127 1zm24 4c4 3 2 4-2 0l-2-3 4 3zm-11 1c3 2 3 2 1 2l-4-2c-3-4 0-4 3 0zm6 0c2 1 2 2 1 2l-4-2c-2-2-2-3-1-3l4 3zm11 0c2 3 1 3-2 0-3-2-3-3-2-3s3 1 3 3zm4-1 2 4-6-5c0-2 2-1 4 1zm-26 1c3 2 2 3-1 2l-3-1c0 2-4 2-8 1-4-2-4-2-3-3l5 1c4 2 5 2 3 0l-2-2h3l6 2zm31 1c3 4 2 5-2 0l-1-3c1 0 3 1 3 3zm8 4c-1 1-6-4-6-6l3 2 3 4zm3-2c2 2 3 5 1 4l-3-4c-3-4-1-4 2 0zm-59-1c3 3 0 3-3 1s-3-2-1-2l4 1zm65 3c2 4 1 4-2 0-2-3-2-4-1-4l3 4zm-72-2 3 2c0 1-1 1-5-1s-2-3 2-1zm47 1a137 137 0 0 1 97 57c4 3 14 24 18 35 21 62 0 123-55 159-4 3-5 4-2 4 2-1 9 0 7 1h-6c-4-1-5 0-13 4A137 137 0 0 1 12 113l4-11c7-26 30-55 56-71a142 142 0 0 1 86-21zm31 3 1 3-5-6c0-2 2 0 4 3zm-81-1h-2c-5 0-8-2-3-2l5 2zm86 2c2 3 2 5 0 3l-3-7 3 4zm-93-1 2 1h-8l-1-1 2-1 5 1zm102 6c1 3 0 3-2 0l-2-2c0 2-3-2-3-4s6 3 7 6zM96 16l-2 1c-3 1-9 0-8-1h10zm112 6c0 2-2 1-3-2l-1-4c0-1 4 4 4 6zM87 19c2 0 2 1 1 1-1 1-8 0-8-1h7zm124 2 1 3c0 3-2 1-2-2-1-3 0-4 1-1zM83 22h-6c-2-1-2-1 1-1l5 1zm-6 2c2 0 2 0 1 1l-5 1c-2-1-3-1-2-2l3-1 3 1zm143 4v3c-1 0-2-1-3-5 0-4 2-3 3 2zm4 2v3l-2-4c0-4 2-3 2 1zM74 28h-9l5-1 4 1zm154 6v3l-2-6c0-3 2-2 2 3zM68 31l-6 2c-2 0-4 0-3-1l2-1 4-1c3 0 4 0 3 1zm164 3v3c1 3 0 4-1 1v-5l1 1zM61 35l1 1-4 1c-4 0-6-2-2-2h5zm175 6-1 3-1-5 1-3 1 5zM58 39l-5 1-3-1 5-1 3 1zm182 5-1 3-1-5 1-3 1 5zM54 42l-4 1c-3 0-3 0-2-1h6zm189 4c1 5 0 6-1 5v-9l1 4zM50 46h-7l4-1c3 0 4 0 3 1zm197 5c0 3 0 4-1 3-2-2-1-8 1-8v5zM46 50l-6 2c-3 0-2-2 2-2l3-1 1 1zm205 5-1 4-1-4 1-4 1 4zM41 56c-3 1-7 2-6 0 0-1 6-3 7-2l-1 2zm214 4-1 4-1-5 1-4 1 5zM38 60c-2 1-9 3-8 1l4-2c5-1 6-1 4 1zm221 5-1 4-1-4 1-5 1 5zM33 65c-2 2-8 3-7 1l8-3-1 2zm229 4c0 3 0 5-1 4v-9l1 5zM29 70c-2 2-6 3-6 2s3-3 6-3v1zm236 3c0 3 0 4-1 3s0-7 1-7v4zM26 75c-2 2-6 3-6 2s6-4 7-3l-1 1zm243 4 1 1 2 3c1 1 2 6 0 6v2c1 1 1 1 2-1 0-1 1-1 1 1v3c-1 1-5-3-5-4 1-1 0-2-1-3l-1-2h3l-3-2-3-3 1-1c1 1 1 0 1-1 0-2 0-2 1-1l1 2zM25 80a21 21 0 0 1-8 3l2-2c2-2 6-3 6-1zm-4 6c-2 0-2 2-2 3 0 2-5 7-7 6 0-1 1-4 3-4l2-2v-1c-3 0-2-2 1-3 4-2 5-1 3 1zm-5 11c-2 3-6 5-6 4 0-2 5-6 6-6v2zm260-1c1 0 2 0 2 2 0 3-3 2-5-1v-1h3zM11 106c-3 3-4 2-1-2l4-2-3 4zm267-4 2 2v9c0 2 1 2 2 1s1-1 1 1c0 3 0 3-2 2a5 5 0 0 1-3-4l-1-4c-2-2 0-3 2-1h1l-3-3-2-3h1c2 2 2 2 2 0zm-268 9c-1 2-3 3-3 2l1-3c4-3 5-2 2 1zm-1 9c-1 2-4 3-5 3l5-5v2zm275 2c0 2 0 2-2 0-4-3-4-4 0-3l2 3zM8 124l-4 5c-2 0-1-3 1-3l2-2 1-1v1zm277 4c0 2-1 1-3-1-3-3-2-4 1-2l2 3zM8 129l-2 5-3 1 2-5 3-1zm277 2v6l1 4c-1 3-2 4-3 1v-2c1 0 1-1-1-3-2-3-1-5 0-3h2l-1-2-2-3h1l3 2zM6 139l-2 3-1 1c-2-1-1-4 1-6 3-2 4-1 2 2zm0 5-1 3c-2 0-1 2 1 3s2 4 0 4l-2-1H3l2 3 2 3c0 2 0 2-2-1-3-3-4-10-1-15 3-4 3-3 2 1zm279 4-2 4c1 0 2 0 2-2l2-1c1 1-2 7-3 7l-1 1 2 1c2-1 3 0 1 2-3 2-4 0-4-7s1-8 2-9c3-1 4 1 1 4zM5 162c3 2 4 4 2 4l-5-6c0-2 1-1 3 2zm278 1h3c0 3-2 4-4 3v-5l1 2zM7 169l2 4c0 1-1 1-3-2l-3-5c0-1 1-1 2 1l2 2zm277 0c2-2 1 1-1 3l-2 3-1 1-1-2 2-4 1-2 2 1zM9 176l1 2c0 4-4 2-4-2-1-3-1-3 1-1l2 1zm275-1c0 2-6 9-7 8l7-9v2zm-274 7c1-1 1-1 1 1 0 4-2 5-3 2v-3h2zm273 0-7 7 6-8 1 1zm-270 6-1 2v2c1-1 4 5 4 6l-7-8h1l1-2 1-2 1 2zm265 5-4 2c0-1 6-7 7-6l-3 4zm0 4c-1 2-6 5-7 5l7-7v2zm-262 3 3 4 1 3h-3l-3-3h4l-3-3-4-3c0-2 1-1 5 2zm259 4-7 4 7-6v2zm-254 5 1 2c0 2-1 2-4 0-2-2-3-4 0-2h3zm252 0-6 4c-3 0 1-3 6-5v1zm-250 5c1-1 1-1 1 1 0 3 0 3-3 2l-2-3h4zm246 1c-2 2-6 3-6 2l7-3-1 1zm-243 7-3-1c-2-2-2-2 0-2 1 1 2 0 2-1l1 1v3zm242-3-7 3c-1-1 0-1 2-2 4-2 5-2 5-1zm-238 9-1 3c-1 0-2-3-1-6 0-4 2-2 2 3zm234-4c-2 2-8 4-6 2 1-2 3-2 6-3v1zm-231 7v5c-1 1-2-3-2-7 0-3 2-2 2 2zm228-2c-1 2-7 3-7 2 1-1 4-3 7-3v1zm-224 8c0 3 0 4-1 3v-8l1 5zm220-3c-2 2-8 3-8 2l7-3c2 0 2 0 1 1zm-216 7c0 3 0 4-1 3v-7l1 4zm212-1-5 1c-4 0-4-1 1-2 4-1 4-1 3 1zm-208 5-1 4-1-4 1-4 1 4zm203-1c-2 2-7 3-7 1l3-1 3-1c3-1 3-1 1 1zm-199 6v3c-1 0-2-2-2-6 0-3 1-2 2 3zm196-2-6 2c-3 0-3-2 1-2l4-1 1 1zm-191 5c0 4-1 5-2 2v-6l2 4zm186-1-4 1c-2 0-3 0-2-1l3-1 3 1zm-183 4v4l-1-4c-1-4 1-4 1 0zm180-1-5 1c-2 0-3 0-2-1l4-1c2 0 3 0 2 1zm-176 4v4l-1-7 1 3zm172 0h-8c0-1 7-2 8-1v1zm-167 3v4l-3-4c0-4 2-4 3 0zm162 0c1 1-2 2-6 1l-2-1h8zm-158 3 2 2v-3l1 1 1 1c2 0 5 7 4 8l-3-3-1-2c0 3 0 3-3 0-2-2-4-7-3-7s2 1 2 3zm149 4-7 1-2-2c1-1 9 0 9 1zm-136 3v4l-4-7c0-2 2 0 4 3zm131 0c1 1-3 1-5 1-5-1-3-3 1-2l4 1zm-127 3c2 4 1 4-1 0-2-3-2-4-1-4l2 4zm119-2 2 2c-1 1-7-1-7-2h5zm-113 5v3l-2-3c-2-3-3-6-1-4l2 4zm110-2v1c-4 0-7-1-6-2 0-1 3-1 6 1zm-107 2 2 3-1 1-4-6c0-1 2-1 3 2zm100-1c3 1 4 3 1 3l-6-3h5zm-95 3c3 4 2 5-1 1-2-3-3-4-1-4 0 0 2 1 2 3zm89-1c3 1 4 3 3 3l-7-3h4zm-83 3c2 3 1 4-1 1-3-2-3-4-2-4l3 3zm80 1-6-3c1-1 3 0 5 1 3 1 3 2 1 2zm-74 0 1 4c0 1-5-4-5-6s2-1 4 2zm8 5c0 1-6-4-6-6 0-1 1-1 3 2l3 4zm59-6c4 2 4 3 0 3-3-1-6-4-4-4l4 1zm-5 2 1 2-6-3c0-2 2-1 5 1zm-51 0 2 3c3 3 1 2-3-1-3-3-2-5 1-2zm46 1c2 2 2 2 0 2l-3-2c-3-3 0-3 3 0zm-39 2 1 2-4-3c-1-3 2-2 3 1zm6 0 1 3c-1 1-5-3-5-5l4 2zm11 1c3 2 1 3-2 0-3-2-4-5-1-3l3 2zm5-2 2 3c-1 1-6-2-6-4l4 1zm6 0c2 2 2 3 1 3l-6-4c0-2 2-1 5 2zm6 0c2 3 0 3-4 0-2-2-2-2 0-2l4 2zm-23 1c3 3 2 4-1 2l-3-3c0-2 3-1 4 1z"/>
    <path d="M126 14a135 135 0 0 0-80 224 135 135 0 0 0 210-16 136 136 0 0 0-4-155 132 132 0 0 0-126-53zm20 4c3 2 3 5 0 6-2 1-2 1 0 4 4 3 4 4 0 4-2 0-2-1-3-3-2-4-3-4-3 0 1 2 1 3-2 3-3 1-5-1-3-2 2 0 1-11 0-11v-2c2-2 8-1 11 0zm16 7 3 8h-3l-4-1 1-1 1-1c0-1-1-2-3-2-3 0-3 0-2 2 0 2 0 2-2 2l-3-1 4-8c4-9 5-8 8 2zm-30-5-1 2a1 1 0 0 1-1-1l-3-1c-3 0-3 0-3 3s0 2 2 1c3-1 4 0 4 2l-3 1c-3 0-3 0-3 2s1 2 2 2l1 1-1 1-3 1c-2 0-2 0-3-7l-1-7c-2-1 0-2 5-2 8-1 8-1 8 1zm48 1-2 1c-3 0-7 7-5 10 3 3 6 1 8-7 0-4 1-4 3-3v2l-2 5c-2 6-6 8-10 6-3-2-3-5-1-13v-4l4 1 5 2zm-77 3c-1 3 2 12 4 12 1 1 1 1-2 2-4 3-5 2-4-1 0-3-2-10-4-10s-1-2 2-3h4zm92 2c12 6 5 19-7 14-4-2-6-4-4-4s5-8 5-10c-1-2 0-2 6 0zM94 28l1 3-2 1c-5-1-5 0-2 4 1 3 3 5 4 4 2-1 1 2-3 4s-4 2-4 0c1-2-2-10-3-10-2 0-4 1-4 3 0 3-2 2-3-1v-2c8-5 16-8 16-6zm23 0c0 2-1 2-7 3-3 1-4 0-2-2 1-2 10-3 9-1zm52 10c76 16 113 111 67 176-40 56-124 63-171 14a114 114 0 0 1 41-186c19-7 41-8 63-4zm-94 1c-1 1 0 3 3 5 4 6 4 7 0 7l-8-2h-3l2 2 4 3c2 0 1 1-1 3-3 3-3 2-3 0 0-3-5-10-7-9-3 1-2 0 1-2 2-2 3-2 7-1 6 1 6 1 3-3-3-2-3-2-1-4s3-1 3 1zm142 8c0 2-1 2-5 3l-1-1h1c2 1 4-2 3-4l1-1 1 3zm18 6c2 3 3 5 1 7-2 1-2 1-2-2-1-4-5-5-8-2s-1 6 2 6l2 1c0 2-5 1-7-1-4-3-3-7 2-9 6-2 7-2 10 0zM61 57c8 3 8 3 6 5-3 2-4 2-4 0s-1-1-3 1-2 2 0 3c3 0 3 1 0 4-3 2-3 2-3 0a30 30 0 0 0-3-8c-4-8-3-9 7-5zm183 8c3 4 3 4 1 6-1 1-2 1-2-2-1-3-3-5-4-3v2l1 2c-1 1-3 1-3-1 0-1-3-2-4 0 0 1 2 4 4 4s2 0 0 2c-1 2-1 2-5-2-5-6-5-5 0-7a22 22 0 0 0 6-4c2-3 2-3 6 3zM45 77c0 2-1 3-2 2l-1 1c1 1 0 2-1 2-2 0-1-4 1-4 1-1 2-1 1-2 0-1 1-3 2-2v3zm209 1-1 5c-2 4-2 5 1 4l2-3c0-2 2-1 3 1 1 3 1 3-1 3l-7 3c-6 4-6 3-3-4 1-5 1-6-3-2-2 2-2 2-4 1v-4c2 1 9-3 10-5 0-2 3-1 3 0zm11 20c2 6 2 8-1 8v-2c0-2-4-1-8 1-3 2-3 2-4-1v-3l10-3-2-3c-1-2-1-3 1-3l4 6zM26 99l-2 5c1 2 3 1 3-1 3-8 10-8 10 0 0 3-4 9-6 8-1-1-1-2 1-3a7 7 0 0 0 2-5v-3l-3 4-3 4c0 2-4 1-5-1-2-2-1-5 2-10 3-4 4-2 1 2zm244 20c-2 2-5 1-3 0 2-2 1-6-1-6s-2 0-1 2c1 3 1 3-1 3-1 0-2 0-1-2 0-1 0-2-2-2s-3 3-1 5c2 1 1 2-1 2-1 0-2-1-2-4l-1-5c-1-1 0-2 3-2l7-1 3-2 1 6v6zm-243 1c8 4 4 13-5 13l-6 1-1-2 1-4h3c5 2 8 1 9-2 0-3-6-5-11-3l-1-1 1-3c0-2 5-2 10 1zm246 12c-1 3-5 4-7 2s-2-2-3 0l-3 2c-2 0-1-3 2-5 3-3 3-4-1-4-3 1-3 1-3-1s1-3 6-3l7-1c1-1 2 6 2 10zM23 145l2 1c2 0 3 2 1 3l-1 3c1 2 1 2-1 1h-3c-2 2-3 1-2-2l-1-3c-3-1-2-2 0-2s3 0 3-2 2-2 2 0zm248 2c2-1 3 1 1 2-2 0-2 1-1 3 0 2-1 3-3 1h-3c-2 1-2 1-1-2l-1-3c-3-1-2-2 0-2s3-1 3-2c1-2 1-2 2 0l3 3zM24 164l3 1c2 0 3 2 1 2-2 1-2 1-1 3s1 2-1 2h-4c0 3-2 2-2 0 1-2 0-3-1-4l-2-2h2c2 0 3 0 3-2l1-2 1 2zm243 0 2 2 2 1-1 1-1 3c0 2-1 3-3 1h-3c-1 1-1 1-1-1 1-2 0-3-1-3-2-1-1-3 1-3 2 1 2 0 3-1 0-3 2-2 2 0zM30 184h2l-1 1v3c1 3 1 4-1 2-1-1-2-1-3 1-2 1-2 1-2-1l-1-3-2-1 2-1 1-3v-2l2 2 3 2zm235 1c2 0 3 2 0 3l-1 2c1 2 0 3-2 1h-3c-2 1-3 1-1-2 1-1 0-2-1-3-1-2-1-2 1-2l4-2c0-2 0-2 1 0 0 2 1 3 2 3zM37 201c1-1 2 0 2 3 0 4-1 4-2 4-1-1-2 0-3 1-1 2-2 1-2-1 1-2 1-2-1-3-3 0-3-2 0-2l2-2c0-3 0-3 1-1l3 1zm218 1 2 1 1 1-1 1-1 2c0 1-1 2-3 2-2-1-3-1-2-2l-1-2-1-2h1l2-1c2-2 3-2 3 0zM44 214c2 3 2 5-1 5s-5-3-3-5h4zm205 3-4 1-1-2 2-2c2-1 4 1 3 3zm-5 6-1 2v3c1 1 1 1-1 1l-1-2-2-4h4zm-185 5c1 2 1 2-1 2-3 2-5 5-3 6 1 1 2 1 4-1 1-2 2-3 3-2l1 1c-7 6-9 6-11 2-1-2-1-2 1-5 2-1 3-3 2-3l1-1 3 1zm10 11v4l-1-2-2-2v2c1 6-1 8-5 4-2-1-3-5-1-5l1 2 1 2c1 0 2-1 1-2-1-5 4-7 6-3zm156 0 1 2 2 1c2 0 2 0 1 2-1 1-1 1-3-1-2-1-2-1-1 1 0 2 0 3-3 6l-4 2-1-2a39 39 0 0 0-3-4c-2-1 0-4 3-4l2-3c3-2 4-3 6 0zm-12 8-2 1c-1 0-1 1 2 3 2 3 2 5 0 5l-2-1-2-4c-2-1-2-1-2 1h-1c-1-1-1-2 2-4s4-2 5-1zm-132 5v6h-3c-2-1-2-2-1-2v-1c-1-2-1-2-2-1l-2 1c-2-1-2-3-1-3l5-2c4-3 5-3 4 2zm8 4 2 3a6 6 0 0 0 0-4c0-1 2-1 3 1v1l-2 4c-1 4-3 4-5-2-1-3-1-3-2 1 0 1-1 2-2 1-1 0-1-1 1-4l2-5c0-3 2-1 3 4zm115-4 1 5c3 4 3 4-1 3l-4-1 2 2c2 0 2 2 0 2-1 1-2 0-3-2-2-4-4-6-4-4l-1 1-2 1c0 1 1 2 2 1 3 0 3 0 1 1-3 2-1 4 1 2h3l-7 5-2-1 1-1c1 0 0-3-3-6-2-3 9-6 13-4h1c-1-2-1-5 1-5l1 1zm-101 7 2 3h-1c-2-2-3-1-3 3-1 3-1 4-3 3-2 0-2-1-1-3 2-2 2-5 1-5-1 1-2 0-2-2s0-2 3-1a32 32 0 0 0 4 2zm84 2c0 2 0 2-3 2-3-1-4 4 0 5l2-1 1-1c2 0 1 3 0 3h-8c-2-3 0-8 4-9 3-1 3-1 4 1zm-75 2-1 1-2 4c-2 5-1 5-4 4-2 0-2 0 0-4l1-5 2-1 4 1zm17 3c1 1-2 6-4 5-1 0-2 0-2 2l-2 2c-2 0-2 0-1-2l1-6c0-3 0-3 4-2l4 1zm40 0c5 3 2 8-5 9-4 0-4 0-3-1 2-1 2-2 1-5-2-4-2-4 1-4l3-1 3 2zm-34 0c2 1 3 4 1 5v2c2 3 3 2 5-3 2-6 3-5 5 0l2 5c0 1 0 2-2 1l-1-1v-1l-2-1c-1 0-2 0-2 2 0 3-4 2-6 0s-3-2-2 0l-2 1c-1 0-2 0-1-2v-5c0-4 1-5 5-3zm18 1c-1 3 0 7 2 7 1-1 2-2 1-5l1-4c2 0 2 8 1 10h-7c-2-3-2-10 0-10s2 0 2 2zm-37 1 3 1c-2 2-8 1-8-1s0-2 1-1l4 1z"/>
    <path d="M139 21c0 2 1 3 2 3s2-1 2-3 0-2-2-2-2 1-2 2zm52 12c-2 4-2 6 2 6 3 0 5-7 3-10-2-2-3-1-5 4z"/>
    <path d="M131 39C16 54 0 216 110 253c9 3 29 7 30 6 0-1-4-3-7-3-5 0-24-5-26-7a5 5 0 0 0-3-1c-4 0-10-3-7-4 2-1 2-1-1-1l-9-3-5-3h17l16-1H98c-26 0-28-2-3-3l19-1H75l-6-7-7-6 17-1 17-1H79l-19-1c-1-2 1-2 22-2h23l-23-1c-34-1-33-3 1-2 28 0 28 0 25-3l-3-2v-28c0-28 1-36 2-34 1 1 1 0 1-2l-1-5c-1-1 1-1 5-1h7l-1 4 1 6c2 2 3 9 1 9l-1 10v11h-11v-17l-1 9v9h6l6 1 1-10 1-12v12l1 12c2 0 3-5 3-27l1-22c2-3 0-7-3-7-1 0-3 4-2 5l1-1c0-4 4-3 4 0l-4 4c-4 0-3-7 0-9 9-4 19 2 14 8-1 2-4 1-4-2l-1-3-1 3c1 2 1 3-1 3v3h2l1-2 1 6a128 128 0 0 1 1 37v1l6-3 4-3 6 3 5 3v-7a193 193 0 0 1 3-44l-1 2c0 3-3 5-5 3-4-3 1-9 7-9 8 0 13 4 9 8-3 3-4 2-4-1l-1-3-1 3-1 3-3 1 3 1 4-1v23l1 24 1-17v-16l1 17c0 9 0 16 1 15 0-2 2-3 9-3h5l-6-1h-5v-15h4c3 0 4 1 5 2 1 2 1 2 1 0 0-3 0-3-6-3h-5v9c0 6 0 8-1 7a172 172 0 0 1 1-34v-5h6c5 0 5 0 5 3l1 4c3 2 1 63-2 65l-2 2 26 1c28-1 28-1 25 3l-2 3h-49l23 1 24 1c0 4-4 5-26 5-16 0-21 0-20 1l20 1h19l-3 3-3 3h-19l-19 1h17c16 0 21 1 16 2l-16 1-15 1h14a48 48 0 0 1 14 1l-17 1-12 1 12 1h12c0 1-10 5-11 4l-2 1c1 2 1 2-2 2l-3 1-3 2a105 105 0 0 1-23 5c-3 0-7 3-5 3 21 1 54-15 72-33 72-75 10-200-92-187zm36 4a109 109 0 0 1 69 49c7 13 15 35 15 45v3h-24v-3c0-3 1-4 2-5 4-1 4-7 1-10-5-3-3-8 4-14 4-4 6-8 3-9l-8-3a1808 1808 0 0 0-66-26l-18-6-6 2a1993 1993 0 0 0-89 35l7 9c4 5 6 11 3 12-5 1-4 11 0 11 2 0 2 1 2 4v3H38v-6a109 109 0 0 1 129-91zm-12 27 10 4-11-3-10-4-18 7a159 159 0 0 1-19 7c-1-1 5-3 13-6l25-9 10 4zm3 3 16 7 8 3h-2c-22-9-35-13-39-11a373 373 0 0 1-34 11l14-5a458 458 0 0 0 15-6c9-3 9-3 22 2zm-4 2a430 430 0 0 1 18 7c7 2 10 3 11 2a490 490 0 0 1 45 19c-4 0-10-2-32-11a2248 2248 0 0 0-40-14l-11-4-14 5a2908 2908 0 0 0-59 22 15 15 0 0 1-6 2c-3-1 74-31 79-31a88 88 0 0 1 9 3zm20 2a44 44 0 0 1 8 3c2 1 2 2-8-2l-8-4a75 75 0 0 1 8 3zm-22 3 5 3-13-5h1l7 2zm-9-1a55 55 0 0 1-13 5 49 49 0 0 1 12-5h1zm-38 3-1 1-25 10a264 264 0 0 1-25 9l20-9 25-10c5-2 6-2 6-1zm43 0 3 2c6 1 10 2 9 3l1 1a72 72 0 0 1 21 6l3 1-2-2-1-1a408 408 0 0 1 15 7c-10-4-11-4-11-3l3 1 4 1 6 3 5 2h-61a1689 1689 0 0 0 0 1h76l15 1-89 1-90-1a299 299 0 0 1 46-18l-24 9-18 7 11 1 12-1c0-1 3-3 7-4l9-4h2c-2 2-2 2 0 2a9 9 0 0 0 4-1l12-5a15 15 0 0 0 5-1h2v1l-2 1 2 1 1-4 4-2 9-3c6-3 11-4 11-2zm52 5c33 12 37 14 36 15l-15-6-26-10a246 246 0 0 1-11-5l16 5zM72 109l-6 1-7-1 7-1 6 1zm40 0-19 1-20-1 20-1 19 1zm41 0-20 1-20-1 20-1 20 1zm71 0zm1 6v2h-50a550 550 0 0 1-60-1l-24 1H63v-5h162v3zm1 4-4 1-8 2c-3 2-14 2-17 0a14 14 0 0 0-6-2 14 14 0 0 0-7 2c-3 2-15 2-17 0s-11-2-13 0c-3 2-17 2-19 0s-10-2-13 0-15 2-17 0l-10-2c-5 0-7 0-5 1 1 1 1 1-1 1-4 2-14 1-14-1l-6-1-6-1 82-1 81 1zm-151 5c2 4 3 4 0 7s-3 2-4-1c-2-4-1-5 2-4h1c-1-2-5-3-5-2l-1 1v1c2 3 2 6-1 6s-3 0-2-3-1-4-3-2l1 1v1c-1 4-5 2-5-2 0-5 12-7 17-2zm30 0c2 2 3 4 1 6-3 3-5 2-5-1l-1-3c-1 0-2 1 0 4v3l1 1c1 0 2 4 2 25v36c1 5-1 7-6 7h-3l-1-34 1-34 2-4-1-4-1 1c1 1-1 5-2 5l-3-2c-3-6 11-11 16-6zm93 0c3 2 3 6-1 7-3 0-3 0-3-2 1-2 0-3-1-3s-1 1 1 5c0 2 0 2-2 2-2-1-2-1-2 3 0 3 0 3 1 0 0-2 0-3 1-2v2l1 3 1-2 1-3a192 192 0 0 1 0 39c1-2 1 2 1 13-1 17-1 17-7 17h-2v-66l2-7c2-1 2-2 1-2l-2 2c-1 2-5 1-6-2 0-4 3-6 9-6l7 2zm31 1c2 2 2 5-1 7-2 1-4-2-4-4 1-2 0-2-1-2-2 0-2 0-1 1v1c-1 0-1 1 1 2 1 1 1 2-1 2-3 1-3 1-1 2 2 0 2 1 2 5v5l1-5c1-5 1-5 1 3l1 9a4 4 0 0 1-1 3v1l1 22c0 18 0 22-2 22l-1 1 1 1 1 1-1 1c-2 0-1 1 0 2l3 2 1 1-7 1c-8 0-10-2-2-2 4 0 5 0 2-1-4 0-6-3-3-3l3-1v-1l-4-1h1l1-2-1-2a409 409 0 0 1 0-68 5 5 0 0 1-1 3c-2 2-5-1-5-3 0-6 12-8 17-3zM68 166c0-31 0-33 2-33s5 46 2 47v-12l-1-23c-1-9-1-5-1 23v34l-3 1h-4l3-1 3-1h-6v-33c0-30 0-33 2-34 1-1 2 3 2 32l1 33v-33zm24-21c0 10 0 10-2 10h-3l3 1c4 1 2 3-3 3h-6l6 1h5v18c0 21 0 21-6 21-4 0-5-2-5-9l1-8v-5h9l-4-1c-6 0-6 0-6-23v-17h10l1 10zm115 11v20h-9v-5a158 158 0 0 1 1-33c1-1 0-1-1-1-1-1 1-1 4-1h5v20zm-57-14c0 9-1 11-6 11h-4v-15h10v4zm-73 35v28l1-33 1-34 1 34c0 35 0 37-4 35-2-1-3-6-1-7l1-32a215 215 0 0 1 1 9zm133 25c-2 5-3-24-1-51a683 683 0 0 1 1 51zm5-60-1 1-1 2c0 1-1 1-1-2 0-5 0-5 2-3a7 7 0 0 1 1 2zm-153-1-12 1H39v3c0 2 0 2 1 1 2-3 13-3 13-1l1 2 1-2 4-1c3 0 3 0 3 3v4H37v-3c0-7 0-7 13-7h12zm177 4 1 2v-1c0-1 1-2 5-2h5c1 0 2 0 2 2s0 2-12 2-13 0-13-2 1-2 5-2l6-1 1 2zM75 158c0 3-1 1-1-5l1-5v10zm29-4c0 2-1 1-1-3l1-3a24 24 0 0 1 0 6zm112 18v26l-1-23c0-19-1-22-1-13v11l-1-10c0-7 0-10-1-9h-1l1-2 1-1 1-1 1-2 1-2v26zm36-21h-13c-12 0-12 0-4-1 7-1 16 0 17 1zm-206 4h1l8-1h7v6H39l1 3c0 1 0 2 1 1l1-2v1l2 1 3 1c0 1 0 2 1 1v-1l3-1 3-1c2-3 8-1 8 2s-1 3-4 3l-3 1 1 3 2 2v1c-4 1-4 4-1 4s3-1 3-5l1-5 1 8v8h-4c-2 0-3 0-3 3 0 2 1 3 2 3v-1l1-1 1 1-2 2-1 2c0 2 1 3 2 3v1l1 1c2 0 1-12-1-12-1-1 0-1 1-1h3v9c-1 16-8 20-9 5 0-9-1-11-1-3v6l-2-3-2-4-1-5-1-4c-2 1-3-1-1-2 1 0 1 0 0 0-3 0-7-17-7-27v-4h4l4 1zm205 4-1 4-1-2-5-1-5 1-2 2-2-2-4-1c-3 0-4 0-3-2l3-1 3-1h-4l-3-1 12-1h12v5zm-100 2c0 2-1 2-6 2s-6 0-6-2 1-2 6-2 6 0 6 2zm81 1c3 2 2 8-2 8l-1 2 2 2c2 0 2 0 2-2-1-1 0-2 1-3l2-3 2-2 1 14c0 12 0 14 1 11l1-7c-1-2 0-3 2-3s3 0 3-2l-1-2-1 2h-1c-1-2-1-2-2 0-1 1-1 1-1-1 0-1 1-2 3-2s2-1 2-2l1-3c1-1 1-1-2-1s-2 0-1 1v1c-2 0-3-7-1-8 2-2 5 0 5 3 0 2 0 2 1 1l2-2 1 1-2 6-1 6-1 3c0 4-2 7-4 7s-2 1-2 4c0 6-6 17-9 18l-2-1-1-2-1-7v-1a4 4 0 0 1-1-3h1c2 4 5 2 5-3s0-6-2-5c-1 0-2 1-2 3l1 2h2l-2 1c-2 0-2 0-2-7v-7h2c2 0 3 0 3-2-1-2-4-2-5 0v-13l2 1 3-1-3-1c-2 0-3 0-2-1h4zm-20 18a48 48 0 0 1 0 10l-1-10 1-10v10zm-137 8c-1 10-1 13-3 12v-16l1 3 1-4 1-6v11zm132 2c1 19 0 19-3 19-6 0-7-4-6-24 0-3 0-3 2-3h3l-3-1-3-1c0-3 1-3 6-3h4v13zm7 12v1c2 0 1 2-1 2-1 1-1 0-1-3v-4l-1-1 1-2 1-4 1 4v7zm-123 1c-1 8-11 9-10 0l1-3h5c5 0 5 0 4 3zm12 2-5 1c-7 0-6-3 1-3l4 1zm92-1v1l-5 1c-5 0-5-2 1-2h4zm-124 1c1 1 0 1-4 1-3 0-5 0-4-1h8zm3 3-7 1c-4 0-7 0-6-1l7-1 6 1zm30 0-6 1-7-1 7-1 6 1zm93 0-6 1-6-1c-1-1 1-1 6-1l6 1z"/>
    <path d="m184 85 5 3 21 8 17 6-20-8-21-9h-2zm-43 2v12l1-1 1-1c3 1 4 0 4-6s-2-7-2 0l-1 6v-6c0-5-2-8-3-4zM93 99c-5 1-8 3-3 2l6-2 2-1c-1-1-3 0-5 1zm80 2 7 1c9 0 8-1 0-1h-7zm-49 1h10l-5-1c-5 0-7 0-5 1zm20 13c-1 1 2 1 6 1 8 0 8-1 0-1h-6zm37 0c-1 1 0 1 5 1 7 0 7-1 1-1h-6zm-88 9c-2 1-4 4-2 5l1-1c-1-3 11-4 12-2h1c0-2-8-3-12-2zm5 22v34c1 19 1 18 1-13 0-34 0-45-1-21zm-3 9zm6 13v16-33c0-9-1-2-1 17zm-6 13c0 4 0 5 1 3v-6c0-2-1-1-1 3zm93-32c0 6 1 8 1 5v-11c0-3-1-1-1 5zm2 5c0 8 1 11 1 7v-14c-1-4-1-1-1 7zm2 14 1 17 1-13a79 79 0 0 0-1-17l-1 13zm-4 0c0 4 0 6 1 3v-8c-1-2-1 0-1 4zm4 29c1 4 2 4 2 0l-1-4-1 4zm34-71 2 3v1-5a5 5 0 0 0-3-1c-1 0-1 1 1 2zm-6 50c0 14 0 19 1 12a1009 1009 0 0 0-1-12zm-2-12c0 3 0 4 1 2a24 24 0 0 0 0-6c-1-1-1 0-1 4zm4 19c0 3 0 5 1 3v-7c-1-2-1 0-1 4zM84 142c0 2 1 3 2 3l1-3-1-3c-1 0-2 1-2 3zm4 0 1 3 1-3-1-3-1 3zm-4 7c0 3 0 3 2 3a14 14 0 0 1 4-1v-2c0-3-2-4-2-1l-1 2-1-2-1-2-1 3zm0 15c0 2 1 3 2 3l1-3-1-3c-1 0-2 1-2 3zm4 0c0 4 2 4 3 0 0-2-1-3-2-3l-1 3zm-3 7 1 3 1-3-1-3-1 3zm3 0 1 3 1-3-1-3-1 3zm-3 14c-1 1 0 6 1 6v-6h-1zm4 0-1 3c0 4 2 4 3 0 0-2-1-4-2-3z"/>
    <path d="m83 192 1 2c1-1 1 0 1 1l-1 1a1 1 0 0 0-1 1c0 3 7 1 7-2 1-2 0-3-1-3l-1 3-1 3v-3l-1-3-2-1c-1-1-1 0-1 1zm116-47 1 7 1-3 1-9 1 6c0 4 0 6 2 6v-1a27 27 0 0 1-1-6c1-5 0-5-2-6h-3v6zm0 22 1 7 1-6c0-4 0-6 1-5l1 5 1 5 1-6c0-6-1-6-3-6-3 0-3 0-3 6zm-57-27a29 29 0 0 0 1 12v-4c0-5 0-5 2-4l1 5 1 3 1-7c0-5 0-6-2-6l-2 2-1-1h-1zm-103 9 10 1 10-1-10-1a32 32 0 0 0-10 1zm17 15-1 1c-2 0-2 1-2 5s0 4 1 0l2-5 1-2-1 1zm-13 8c0 3 2 4 2 2 1-1 1 0 1 1 0 2 0 3-1 2 0-1-2-1-2 1l2 1v1c-1 1-1 1 1 1 3 1 4 0 2-1l-1-5c0-4 0-4-2-5-2 0-2 0-2 3zm10 9-1 3c0 3 0 3 1 2l1-4-1-2zm186-24h8c2-1 0-1-4-1s-6 0-4 1zm-5 18c0 5 0 5-3 5h-3l3 1c3 1 3 1 3 10a114 114 0 0 0 0-21v5zm-35 13 1 3 1-3-1-4-1 4z"/>
    <path d="m203 191-1 8-1-3-1-4c-2 0-1 6 1 7h3v-14c-1-1-1 2-1 7zm-47-67 4 1c4 0 6 1 7 2v-2c-1-1-9-2-11-1zm-47 17a5 5 0 0 0 1 3l1-1c0-4 4-4 4 0l1 2 1-3c0-3-6-5-8-1zm65-1c-2 1-1 5 0 5l2-2c-1-3-1-4-2-3zm3 2 1 3 1-3-1-3-1 3zm-14 12-1 11h1l1-11-1-10v10zm-54-4c1 2 1 3-1 3h-1l2 1c2 0 3 0 2-2l1-1c4 1 5 0 5-2 0-3 0-3-4-3h-4v4zm64-2-1 3c-1 1 0 1 1 1 3 0 3-1 3-3s-1-3-2-3l-1 2zm4 1 1 3 1-3-1-3-1 3zm-49 19 1 6v-12l-1 6zm-18-7c-2 1-1 6 1 6l1-3c0-2 0-2 1-1l1 2v2c2 0 3-6 2-6h-7zm63 3c0 4 3 4 3 0l1-2v2c0 4 2 4 2 0 0-3 0-3-3-3s-3 0-3 3zm-64 6 2 4c2-1 2-6 0-6l-2 2zm5 1c0 2 1 3 2 3l1-3c-1-4-3-4-3 0zm59-2 2 5v-6l-2 1zm4 2 1 3 1-3-1-3-1 3zm-36 5a55 55 0 0 1-21 7l-8 1v14c0 28 8 45 26 56l6 3 6-3c21-10 30-33 27-66 0-5 0-5-3-5-6 0-18-3-24-6l-6-3-3 2zm9 4a60 60 0 0 0 21 5c5 0 6 4 5 18-2 23-12 41-28 50l-4 2-6-4c-16-11-24-26-25-50-1-14 0-16 5-16a58 58 0 0 0 21-5c6-3 5-3 11 0z"/>
    <path d="M139 183a54 54 0 0 1-15 4l-8 1v9c0 20 5 34 16 44 10 11 12 12 18 8 15-10 22-25 23-48v-13l-6-1c-8 0-18-4-20-6-2-1-1-1-9 2zm8 8c0 2-1 2-2 1h-1l-1 1-1-2v-2a2 2 0 0 1-1-1l1-1h2c0-3 4 1 3 4zm-10-3 1 1-1 3-3 1-2-2v-1l-1-1 2-1 1-1h1c1 1 2 2 3 1zm21 3c0 1-1 2-3 2s-3-1-2-2l-1-1-1-1 1-1h2c0-1 4 1 4 3zm-32 2c0 1-1 2-3 2l-2-1v-3l2-1h2c1 1 2 2 1 3zm42 0-2 2c-3-1-4-3-2-5 2-1 5 1 4 3zm-31 7c0 1 0 2-1 1h-3c0 1-1 1-1-1-1-3 2-6 4-4l1 4zm9-5 1 2h2l-1 1-1 1c1 1 0 2-2 2s-3-1-2-2l-1-1-1-1h2l1-1 1-2 1 2zm10 1 2 1v3l-2 1h-2l-1 1c-1-1-1-4 1-6h2zm-30 1c1 2 1 5-2 5-2 1-3-3-2-5h4zm41 1 1 2v1l-2 1c-3 0-4-3-2-5 1-1 1-1 3 1zm4 11-2 8-1 5v-8c0-6 0-7-2-7s-2 1-2 12 0 13-2 15l-2 3v-16c0-14 0-14-2-14h-2v35l-2 2-3 2v-19c0-19 0-20-2-20s-2 1-2 21-1 22-2 22c-2 0-2-1-2-21v-22h-5l1 19c0 20 0 21-3 18-2-1-2-3-2-19 0-17 0-18-2-18s-2 1-2 15l-1 15c-2 0-4-7-4-18 0-12 0-12-2-12s-2 0-2 7v7l-3-14v-2h54l-1 4zm-64-17 1 9v-9l1-9v-1c-2 0-2 1-2 10zm72-5c1 5 1 5 1 0l-1-4v4zm2 3v6l-1 4v1c2 0 2-1 2-7 0-8-1-11-1-4zm2 24h6c2 0 1-1-3-1l-3 1zm19 0h15c4 0 1-1-7-1l-8 1zm-103 7c-1 1 1 1 3 1l4-1-3-1-4 1zm79 0 10 1h10a80 80 0 0 0-20-1zm-105 1h12c4-1 1-1-6-1s-10 1-6 1zm130 0h8c2-1 0-1-4-1s-6 0-4 1zm-132 3 20 1 20-1-21-1c-13 0-20 0-19 1zm9 4 16 1a55 55 0 0 0 16-1 140 140 0 0 0-32 0zm97 0h29l-13-1a56 56 0 0 0-16 1zm-87 11c3 2 27 2 27 0l-14-1c-9 0-14 0-13 1zm18 4-4 1h-4l4 1 5-1c1-2 1-2-1-2v1zm158-115 2 2c2 0 3-1 3-2 0-2 0-2-2-2s-3 0-3 2zm-48 114-2 1-1 1h2l2 1v2c1 2 2 1 2-1a5 5 0 0 0 0-3c-2-2-3-3-3-1zm-54 25 1 4c0 1 3 0 3-2 1-1-1-4-3-4l-1 2z"/>
  </g>
</svg>
